<?xml version="1.0" standalone="no"?>
<!DOCTYPE svg PUBLIC "-//W3C//DTD SVG 1.1//EN" "http://www.w3.org/Graphics/SVG/1.1/DTD/svg11.dtd" >
<svg xmlns="http://www.w3.org/2000/svg">
<metadata>
This is a custom SVG webfont generated by Font Squirrel.
Copyright   : Typeface  your company 2009 All Rights Reserved
Designer    : Lauren Thompson  nymphontyahoocom
</metadata>
<defs>
<font id="ChampagneLimousinesRegular" horiz-adv-x="1070" >
<font-face units-per-em="2048" ascent="1638" descent="-410" />
<missing-glyph horiz-adv-x="508" />
<glyph unicode=" "  horiz-adv-x="508" />
<glyph unicode="&#x09;" horiz-adv-x="508" />
<glyph unicode="&#xa0;" horiz-adv-x="508" />
<glyph unicode="!" horiz-adv-x="269" d="M55 67q0 33 23.5 56t56.5 23q32 0 55.5 -23t23.5 -56t-23.5 -56t-55.5 -23q-33 0 -56.5 23t-23.5 56zM93 244v1170h80v-1170h-80z" />
<glyph unicode="&#x22;" horiz-adv-x="397" d="M55 881v530h80v-530h-80zM263 881v530h79v-530h-79z" />
<glyph unicode="#" d="M8 462l10 80h284l34 270h-285l10 80h285l57 461h80l-57 -461h270l57 461h80l-57 -461h285l-10 -80h-285l-34 -270h286l-10 -80h-286l-57 -462h-80l57 462h-270l-57 -462h-80l57 462h-284zM382 542h270l34 270h-270z" />
<glyph unicode="$" d="M176 393l72 27q11 -102 84 -173q71 -72 167 -82v622q-91 40 -150 99q-76 75 -76 183q0 105 76 181q64 65 150 75v144h80v-146q78 -14 137 -72q41 -40 59 -95l-69 -28q-15 41 -45 71q-36 35 -82 47v-410q121 -47 208 -134q106 -105 106 -253q0 -150 -106 -255 q-89 -90 -208 -104v-124h-80v123q-127 10 -221 105q-84 84 -102 199zM350 1069q0 -76 53 -129q37 -37 96 -70v379q-54 -9 -95 -51q-54 -53 -54 -129zM579 167q88 13 155 80q83 83 83 202q0 117 -83 200q-65 66 -155 107v-589z" />
<glyph unicode="%" d="M66 869q0 85 59.5 145t144.5 60t144.5 -60t59.5 -145q0 -84 -59.5 -144t-144.5 -60t-144.5 60t-59.5 144zM97 48l811 1158l65 -45l-811 -1158zM143 869q0 -53 37 -90t90 -37q52 0 89.5 37t37.5 90t-37.5 90.5t-89.5 37.5q-53 0 -90 -37.5t-37 -90.5zM596 339 q0 85 59.5 144.5t144.5 59.5t144.5 -59.5t59.5 -144.5t-59.5 -144.5t-144.5 -59.5t-144.5 59.5t-59.5 144.5zM673 339q0 -53 37 -90t90 -37q52 0 90 37t38 90t-38 90.5t-90 37.5q-53 0 -90 -37.5t-37 -90.5z" />
<glyph unicode="&#x26;" horiz-adv-x="1167" d="M73 403q0 173 121 302q83 89 216 134q-64 27 -130.5 98t-66.5 196q0 122 87.5 210t211.5 88t212 -88q49 -47 67 -105l-71 -28q-16 43 -52 79q-65 64 -156 64t-155.5 -64t-64.5 -156q0 -91 62.5 -157.5t115.5 -86.5t132 -21v-75l-63 -1q-194 -37 -291 -143t-97 -246 q0 -141 99.5 -241t241.5 -100q140 0 240 100q58 58 83 130q-11 5 -22 11q-42 24 -106 90q-42 39 -60 49q-19 10 -39 10q-11 0 -22 -2q-32 -9 -48 -37q-11 -20 -11 -39q0 -11 3 -22q9 -32 35 -46q17 -9 46 -9q16 0 36 3l-8 -73q-22 -6 -44 -6q-35 0 -69 18q-53 30 -70 92 q-6 22 -6 43q0 39 21 76q33 56 95 73q22 6 43 6q39 0 75 -21q35 -19 92 -79q51 -46 75 -60q27 -15 55 -15q16 0 32 5q46 12 70 54q15 27 15 55q0 15 -5 31q-12 45 -53 69q-25 14 -56 14q-22 0 -47 -7l-1 79q25 7 49 7q47 0 92 -26q69 -39 90 -115q7 -27 7 -52q0 -48 -25 -92 q-39 -69 -117 -91q-23 -6 -44 -7q-29 -95 -105 -171q-123 -124 -296 -124t-296 123t-123 297z" />
<glyph unicode="'" horiz-adv-x="190" d="M55 881v530h80v-530h-80z" />
<glyph unicode="(" horiz-adv-x="552" d="M55 689q0 421 211 664q66 77 142 130h89q-83 -50 -186 -188q-150 -204 -150 -561q0 -22 1 -45q-1 -23 -1 -45q0 -358 150 -562q103 -138 186 -188h-89q-76 53 -142 130q-211 243 -211 665z" />
<glyph unicode=")" horiz-adv-x="552" d="M55 -106q83 50 186 188q150 204 150 562q0 22 -1 45q1 23 1 45q0 357 -150 561q-103 138 -186 188h89q76 -53 142 -130q211 -243 211 -664q0 -422 -211 -665q-66 -77 -142 -130h-89z" />
<glyph unicode="*" horiz-adv-x="630" d="M75 1027l171 119l-171 119l46 66l155 -109v189h79v-188l154 108l46 -66l-171 -119l171 -119l-46 -66l-154 108v-188h-79v189l-155 -109z" />
<glyph unicode="+" d="M85 483v80h410v410h80v-410h410v-80h-410v-410h-80v410h-410z" />
<glyph unicode="," horiz-adv-x="336" d="M0 -194l91 341h147l-164 -341h-74z" />
<glyph unicode="-" horiz-adv-x="596" d="M48 483v80h500v-80h-500z" />
<glyph unicode="." horiz-adv-x="269" d="M55 67q0 33 23.5 56t56.5 23q32 0 55.5 -23t23.5 -56t-23.5 -56t-55.5 -23q-33 0 -56.5 23t-23.5 56z" />
<glyph unicode="/" horiz-adv-x="627" d="M-52 0l640 1414h91l-641 -1414h-90z" />
<glyph unicode="0" d="M50 695q0 334 142.5 526.5t343.5 192.5t342.5 -192.5t141.5 -526.5q0 -335 -141.5 -527.5t-342.5 -192.5t-343.5 192.5t-142.5 527.5zM134 695q0 -301 117.5 -468t283.5 -167t283.5 167t117.5 468q0 300 -117.5 467t-283.5 167t-283.5 -167t-117.5 -467z" />
<glyph unicode="1" d="M185 0v80h314v1176l-147 -96l-62 45l288 209v-1334h307v-80h-700z" />
<glyph unicode="2" d="M170 0q555 847 598 922.5t43 144.5q0 34 -8 69q-25 110 -119 169q-67 40 -139 40q-32 0 -64 -7q-108 -25 -167 -119q-33 -52 -40 -103l-82 12q6 67 49 134q80 125 221 157q43 10 84 10q98 0 185 -55q124 -78 156 -219q12 -52 12 -99q0 -83 -47.5 -168.5t-523.5 -807.5 h571v-80h-729z" />
<glyph unicode="3" d="M116 337l80 29q13 -118 98 -203q99 -98 238 -98q141 0 240 98.5t99 239.5q0 140 -96.5 245t-289.5 141l-66 2v79q82 1 134.5 21.5t114 86t61.5 155.5q0 91 -63.5 154t-153.5 63q-89 0 -154 -63q-35 -36 -52 -81l-76 30q19 62 68 109q89 88 214 88q126 0 214 -88.5 t88 -211.5q0 -126 -67 -198t-126 -96q128 -42 212 -132q121 -130 121 -304q0 -175 -123.5 -298.5t-298.5 -123.5q-174 0 -298 124q-98 99 -118 232z" />
<glyph unicode="4" d="M136 364l663 1110v-1031h135v-79h-135v-364h-80v364h-583zM273 443h446v749z" />
<glyph unicode="5" d="M85 186l57 62q75 -111 217 -154q64 -20 125 -20q99 0 193 50q153 81 204 247q20 64 20 126q0 99 -51 193q-81 152 -247 210q-72 25 -157 25q-113 0 -250 -43l-63 55l162 448v29h442v-80h-375l-131 -359q44 14 99 26q56 10 109 10q98 0 187 -31q199 -68 297 -251 q61 -114 61 -233q0 -75 -23 -150q-61 -198 -244 -297q-112 -59 -230 -59q-75 0 -153 24q-159 49 -249 172z" />
<glyph unicode="6" d="M142 373v16q9 212 130.5 460t280.5 481q29 43 54 84h106q-29 -50 -65 -101q-182 -260 -298 -503q-30 -64 -53 -123q103 80 238 80q163 0 277.5 -115t114.5 -279q0 -162 -114.5 -277.5t-277.5 -115.5q-162 0 -277.5 115.5t-115.5 277.5zM226 373q0 -128 90.5 -217.5 t218.5 -89.5q127 0 217.5 89.5t90.5 217.5t-90.5 218.5t-217.5 90.5q-128 0 -218.5 -90.5t-90.5 -218.5z" />
<glyph unicode="7" d="M118 1334v80h833q-5 -230 -187 -490t-298 -503.5t-125 -420.5h-83q9 212 130.5 460t280 481t192.5 393h-743z" />
<glyph unicode="8" d="M77 403q0 174 121 304q84 90 211 132q-58 24 -125 96t-67 198q0 123 87.5 211.5t214.5 88.5h32q126 0 214 -88.5t88 -211.5q0 -126 -67.5 -198t-125.5 -96q127 -42 211 -132q121 -130 121 -304q0 -175 -123 -298.5t-298 -123.5q-18 0 -36 1q-18 -1 -37 -1 q-174 0 -297.5 123.5t-123.5 298.5zM160 403q0 -141 99 -239.5t239 -98.5q18 0 36 1h2q17 -1 35 -1q140 0 239 98.5t99 239.5q0 140 -96 245q-94 102 -278 139q-185 -37 -279 -139q-96 -105 -96 -245zM301 1133q0 -90 61.5 -155.5t113.5 -85.5q27 -10 59 -15q32 5 58 15 q52 20 113.5 85.5t61.5 155.5q0 91 -63.5 154t-153.5 63q-8 0 -15 -1h-2q-7 1 -15 1q-90 0 -154 -63t-64 -154z" />
<glyph unicode="9" d="M142 1041q0 162 114.5 277.5t277.5 115.5q162 0 277.5 -115.5t115.5 -277.5v-16q-9 -212 -130.5 -460t-280.5 -481q-29 -43 -54 -84h-106q29 50 65 101q182 260 298 504q30 63 53 122q-103 -80 -238 -80q-163 0 -277.5 115t-114.5 279zM226 1041q0 -128 90.5 -218.5 t217.5 -90.5q128 0 218.5 90.5t90.5 218.5t-90.5 217.5t-218.5 89.5q-127 0 -217.5 -89.5t-90.5 -217.5z" />
<glyph unicode=":" horiz-adv-x="269" d="M55 67q0 33 23.5 56t56.5 23q32 0 55.5 -23t23.5 -56t-23.5 -56t-55.5 -23q-33 0 -56.5 23t-23.5 56zM55 684q0 33 23.5 56t56.5 23q32 0 55.5 -23t23.5 -56t-23.5 -56t-55.5 -23q-33 0 -56.5 23t-23.5 56z" />
<glyph unicode=";" horiz-adv-x="293" d="M0 -194l91 341h147l-164 -341h-74zM32 684q0 33 23.5 56t56.5 23q32 0 55.5 -23t23.5 -56t-23.5 -56t-55.5 -23q-33 0 -56.5 23t-23.5 56z" />
<glyph unicode="&#x37e;" horiz-adv-x="293" d="M0 -194l91 341h147l-164 -341h-74zM32 684q0 33 23.5 56t56.5 23q32 0 55.5 -23t23.5 -56t-23.5 -56t-55.5 -23q-33 0 -56.5 23t-23.5 56z" />
<glyph unicode="&#x3c;" d="M89 622l892 426v-92l-723 -334l723 -334v-92z" />
<glyph unicode="=" d="M85 625v80h900v-80h-900zM89 342v80h892v-80h-892z" />
<glyph unicode="&#x3e;" d="M89 196v92l723 334l-723 334v92l892 -426z" />
<glyph unicode="?" horiz-adv-x="795" d="M47 1073q0 90 69 189q83 121 230 147q34 6 67 6q106 0 199 -64q120 -85 146 -233q6 -33 6 -65q0 -105 -64 -200q-56 -78 -199 -192q-92 -83 -119 -123q-37 -53 -37 -115q0 -18 3 -37q9 -48 30 -75l-56 -65q-40 44 -54 126q-5 27 -5 54q0 85 52 159q44 63 172 166 q111 101 145 150q51 71 51 154q0 24 -4 49q-20 113 -114 179q-74 50 -156 50q-24 0 -49 -4q-110 -20 -175 -113q-53 -75 -53 -151q0 -19 4 -39l-85 6q-4 20 -4 41zM286 67q0 33 23.5 56t56.5 23q32 0 55.5 -23t23.5 -56t-23.5 -56t-55.5 -23q-33 0 -56.5 23t-23.5 56z" />
<glyph unicode="@" horiz-adv-x="1326" d="M55 523q0 251 179 430t430 179q252 0 429.5 -179t177.5 -430q0 -112 -82 -240t-181 -128q-11 0 -22 2q-76 16 -82 88v72q-107 -113 -240 -113t-227.5 94.5t-94.5 225.5q0 134 94.5 228.5t227.5 94.5t240 -112v100h72v-572q16 -38 48 -38q39 0 108 97.5t69 200.5 q0 222 -157.5 380t-379.5 158t-379 -158t-157 -380q0 -221 157 -378t379 -157q152 0 222 43l50 -53q-106 -62 -272 -62q-251 0 -430 178.5t-179 428.5zM419 524q0 -101 72 -173.5t175 -72.5q102 0 175 72q50 51 65 117v116q-15 67 -65 117q-73 73 -175 73q-103 0 -175 -72.5 t-72 -176.5z" />
<glyph unicode="A" horiz-adv-x="1116" d="M-1 0l519 1414h82l513 -1414h-84l-226 622h-489l-230 -622h-85zM343 701h431l-215 593z" />
<glyph unicode="B" horiz-adv-x="1033" d="M112 0v1414h422q121 0 205.5 -85t84.5 -205t-85 -205q-18 -19 -36 -32q78 -33 143 -99q135 -135 135 -327q0 -191 -135 -326q-113 -113 -275 -135h-459zM192 80h327q157 0 268 111.5t111 269.5t-111 270t-268 112h-327v-763zM192 923h360q87 9 130 52q61 61 61 149 q0 87 -61.5 149t-148.5 62h-341v-412z" />
<glyph unicode="C" horiz-adv-x="1347" d="M74 707q0 299 211.5 511.5t512.5 212.5q280 0 487 -189l-61 -54q-182 161 -426 161q-266 0 -454.5 -188t-188.5 -454q0 -267 188.5 -455t454.5 -188q244 0 426 161l61 -54q-207 -188 -487 -188q-301 0 -512.5 211.5t-211.5 512.5z" />
<glyph unicode="D" horiz-adv-x="1189" d="M112 0v1414h262q349 -2 541 -195q212 -213 212 -512q0 -301 -212 -513q-192 -192 -541 -194h-262zM192 82h181q305 0 481 170q188 188 188 455q0 266 -188 455q-176 169 -481 169h-181v-1249z" />
<glyph unicode="E" horiz-adv-x="931" d="M112 0v1414h707v-80h-627v-587h627v-80h-627v-587h627v-80h-707z" />
<glyph unicode="F" horiz-adv-x="783" d="M112 0v1414h619v-80h-539v-587h539v-80h-539v-667h-80z" />
<glyph unicode="G" horiz-adv-x="1359" d="M74 707q0 299 211.5 511.5t512.5 212.5q280 0 487 -189l-61 -54q-182 161 -426 161q-266 0 -454.5 -188t-188.5 -454q0 -267 188.5 -455t454.5 -188q228 0 402 140v431h79v-459q-201 -193 -481 -193q-301 0 -512.5 211.5t-211.5 512.5z" />
<glyph unicode="H" horiz-adv-x="1072" d="M94 0v1414h80v-667h724v667h80v-1414h-80v667h-724v-667h-80z" />
<glyph unicode="I" horiz-adv-x="324" d="M122 0v1414h80v-1414h-80z" />
<glyph unicode="J" horiz-adv-x="306" d="M-61 -202q73 0 124 50q49 49 49 135v1431h80v-1441q0 -108 -73 -181.5t-180 -73.5v80z" />
<glyph unicode="K" horiz-adv-x="999" d="M112 0v1414h80v-677l473 677h97l-367 -531l618 -883h-97l-572 817l-152 -218v-599h-80z" />
<glyph unicode="L" horiz-adv-x="783" d="M112 0v1414h80v-1334h539v-80h-619z" />
<glyph unicode="M" horiz-adv-x="1442" d="M94 0v1414h116l512 -670l511 670h116v-1414h-80v1328l-497 -651l-50 -66l-51 66l-497 651v-1328h-80z" />
<glyph unicode="N" horiz-adv-x="1339" d="M109 0v1414h101l940 -1317v1317h80v-1414h-123l-918 1286v-1286h-80z" />
<glyph unicode="O" horiz-adv-x="1575" d="M62 709q0 300 212.5 512.5t512.5 212.5q301 0 513.5 -212.5t212.5 -512.5q0 -301 -212.5 -513.5t-513.5 -212.5q-300 0 -512.5 212.5t-212.5 513.5zM143 709q0 -267 189 -456t455 -189q267 0 456 189t189 456q0 266 -189 455t-456 189q-266 0 -455 -189t-189 -455z" />
<glyph unicode="P" horiz-adv-x="959" d="M112 0v1414h371q162 -22 275 -135q135 -136 135 -326q0 -192 -135 -327.5t-326 -135.5h-240v-490h-80zM192 571h240q157 0 269 111.5t112 270.5q0 158 -112 269t-269 111h-240v-762z" />
<glyph unicode="Q" horiz-adv-x="1575" d="M62 709q0 300 212.5 512.5t512.5 212.5q301 0 513.5 -212.5t212.5 -512.5q0 -301 -212 -513q-154 -154 -353 -196q5 -2 9 -3q65 -17 174 -86q74 -40 104 -49q19 -5 37 -5q31 0 62 17q46 26 60 77q5 15 6 29h80q-2 -24 -9 -49q-24 -83 -99 -125q-47 -28 -99 -28 q-29 0 -59 9q-53 14 -150 76q-90 48 -128 58q-26 7 -50 7q-45 0 -85 -23q-66 -37 -85 -108q-4 -11 -5 -21h-80q2 21 8 43q29 102 123 155q9 5 17 9q-295 3 -504 213q-213 212 -213 513zM143 709q0 -267 189 -456t455 -189q267 0 456 189t189 456q0 266 -189 455t-456 189 q-266 0 -455 -189t-189 -455z" />
<glyph unicode="R" horiz-adv-x="959" d="M112 0v1414h371q162 -22 275 -135q135 -136 135 -326q0 -192 -135 -327q-94 -94 -215 -123l326 -503h-98l-315 491q-12 -1 -24 -1h-240v-490h-80zM192 571h240q157 0 269 111.5t112 270.5q0 158 -112 269t-269 111h-240v-762z" />
<glyph unicode="S" horiz-adv-x="942" d="M55 335l75 27q12 -115 98 -200q100 -100 241 -100t241 100t100 241q0 140 -100 240q-88 88 -215 140q-151 50 -238.5 137.5t-87.5 212.5q0 122 87.5 210t212.5 88q123 0 212 -88q48 -47 67 -105l-72 -28q-16 43 -52 79q-64 64 -155 64t-155.5 -64t-64.5 -156 q0 -91 64 -156q60 -59 166 -108q170 -55 286 -171q122 -122 122 -295q0 -174 -122.5 -297t-295.5 -123q-174 0 -296 124q-99 98 -118 228z" />
<glyph unicode="T" horiz-adv-x="859" d="M32 1334v80h795v-80h-358v-1334h-79v1334h-358z" />
<glyph unicode="U" horiz-adv-x="1147" d="M112 449v965h80v-965q0 -157 112 -269t270 -112t269.5 112t111.5 269v965h80v-1016q-22 -162 -135 -275q-135 -135 -326 -135q-192 0 -327 135t-135 326z" />
<glyph unicode="V" horiz-adv-x="1133" d="M0 1413h84l479 -1313l486 1314h84l-521 -1414h-97z" />
<glyph unicode="W" horiz-adv-x="1642" d="M0 1414h82l343 -1285h1l350 870h88l351 -870l344 1285h83l-379 -1414h-81l-361 894l-361 -894h-82z" />
<glyph unicode="X" horiz-adv-x="1018" d="M15 0l448 777l-368 637h91l322 -559l323 559h91l-369 -637l450 -777h-91l-404 698l-403 -698h-90z" />
<glyph unicode="Y" horiz-adv-x="1116" d="M32 1414h91l435 -754l435 754h91l-486 -842v-572h-80v572z" />
<glyph unicode="Z" horiz-adv-x="1075" d="M84 0l770 1334h-670v80h807l-771 -1334h841v-80h-977z" />
<glyph unicode="[" horiz-adv-x="384" d="M55 -119v1665h274v-79h-194v-1507h194v-79h-274z" />
<glyph unicode="\" horiz-adv-x="627" d="M-52 1414h91l640 -1414h-90z" />
<glyph unicode="]" horiz-adv-x="384" d="M55 -40h194v1507h-194v79h274v-1665h-274v79z" />
<glyph unicode="^" horiz-adv-x="833" d="M98 942l273 472h92l272 -472h-92l-226 391l-226 -391h-93z" />
<glyph unicode="_" horiz-adv-x="794" d="M-45 -27h884v-79h-884v79z" />
<glyph unicode="`" horiz-adv-x="441" d="M75 1237h147l144 -165h-75z" />
<glyph unicode="a" horiz-adv-x="1122" d="M74 460q0 202 142.5 344t342.5 142q202 0 344 -142q27 -28 50 -59v123h80v-868h-80v177q-23 -31 -50 -59q-142 -143 -344 -143q-200 0 -342.5 142.5t-142.5 342.5zM158 460q0 -166 117.5 -283t283.5 -117t284 118q88 88 110 204v157q-22 117 -110 205q-118 118 -284 118 t-283.5 -118t-117.5 -284z" />
<glyph unicode="b" horiz-adv-x="1131" d="M99 0v1414h80v-668q22 30 50 58q142 142 343 142t343 -142t142 -344q0 -200 -142 -342.5t-343 -142.5t-343 143q-28 28 -50 58v-176h-80zM179 377q22 -113 109 -199q118 -118 284 -118t283.5 117t117.5 283t-117.5 284t-283.5 118t-284 -118q-87 -87 -109 -201v-166z" />
<glyph unicode="c" horiz-adv-x="985" d="M52 461q0 201 142.5 343t342.5 142q202 0 344 -142q29 -29 52 -60l-84 -31q-13 16 -28 32q-118 117 -284 117q-165 0 -282.5 -117.5t-117.5 -283.5t117.5 -283.5t282.5 -117.5q166 0 284 118q15 15 28 31l84 -31q-23 -31 -52 -60q-142 -143 -344 -143 q-200 0 -342.5 142.5t-142.5 343.5z" />
<glyph unicode="d" horiz-adv-x="1122" d="M74 460q0 202 142.5 344t342.5 142q202 0 344 -142q27 -28 50 -59v669h80v-1414h-80v177q-23 -31 -50 -59q-142 -143 -344 -143q-200 0 -342.5 142.5t-142.5 342.5zM158 460q0 -166 117.5 -283t283.5 -117t284 118q88 88 110 204v157q-22 117 -110 205q-118 118 -284 118 t-283.5 -118t-117.5 -284z" />
<glyph unicode="e" horiz-adv-x="1042" d="M52 460q0 202 142.5 344t342.5 142q202 0 344 -142q125 -126 125 -299h-867q-3 -21 -3 -45q0 -166 117.5 -283t283.5 -117t284 118q20 20 38 42l85 -30q-15 -25 -63 -72q-142 -143 -344 -143q-200 0 -342.5 142.5t-142.5 342.5zM154 586h762q-28 91 -95 158 q-118 118 -284 118t-284 -118q-70 -71 -99 -158z" />
<glyph unicode="f" horiz-adv-x="383" d="M22 788v80h88v235q6 98 75 169q73 67 167 67q50 0 105 -19l-25 -71q-37 16 -72 16q-62 0 -118 -50q-49 -49 -52 -118v-229h177v-80h-177v-788h-80v788h-88z" />
<glyph unicode="g" horiz-adv-x="1083" d="M52 460q0 202 142.5 343.5t342.5 141.5q202 0 344 -141q27 -28 50 -59v123h80v-674q0 -196 -139 -334q-142 -143 -343 -143t-344 143q-29 29 -52 60l84 31q13 -16 29 -31q117 -118 283 -118q165 0 283 118q107 107 117 252q-23 -28 -48 -54q-142 -143 -344 -143 q-200 0 -342.5 142.5t-142.5 342.5zM136 460q0 -166 117.5 -283.5t283.5 -117.5t284 118q85 85 109 199v167q-23 114 -109 201q-118 118 -284 118t-283.5 -118t-117.5 -284z" />
<glyph unicode="h" horiz-adv-x="859" d="M94 0v1414h80v-591q100 97 242 97q153 0 249.5 -96.5t99.5 -242.5v-581h-80v573q0 111 -80 189t-189 78q-110 0 -189 -77q-36 -35 -53 -73v-690h-80z" />
<glyph unicode="i" horiz-adv-x="317" d="M79 1097q0 32 23.5 55t56.5 23q32 0 55.5 -23t23.5 -55q0 -34 -23.5 -57t-55.5 -23q-33 0 -56.5 23t-23.5 57zM119 0v868h79v-868h-79z" />
<glyph unicode="j" horiz-adv-x="284" d="M-11 -122q107 12 107 120v870h79v-868q0 -186 -186 -201v79zM56 1097q0 32 23.5 55t56.5 23q32 0 55.5 -23t23.5 -55q0 -34 -23.5 -57t-55.5 -23q-33 0 -56.5 23t-23.5 57z" />
<glyph unicode="k" horiz-adv-x="635" d="M99 0v1237h80v-667l241 298h102l-214 -265l341 -603h-98l-295 539l-77 -96v-443h-80z" />
<glyph unicode="l" horiz-adv-x="300" d="M110 0v1414h80v-1414h-80z" />
<glyph unicode="m" horiz-adv-x="1148" d="M99 0v868h80v-21q74 72 177 72q107 0 182 -75q20 -20 35 -44q16 23 37 44q75 75 182 75t182 -75q71 -73 75 -174v-670h-80v670h1q-3 69 -52 117q-53 52 -126 52q-74 0 -126.5 -52t-52.5 -130v-657h-79v670h1q-4 69 -53 117q-53 52 -126 52t-125 -52q-46 -45 -52 -110 v-677h-80z" />
<glyph unicode="n" horiz-adv-x="879" d="M99 0v868h80v-56q108 108 252 108q154 0 250.5 -96.5t98.5 -242.5v-581h-79v573q0 111 -80 189t-190 78q-109 0 -189 -77q-43 -43 -63 -89v-674h-80z" />
<glyph unicode="o" horiz-adv-x="1114" d="M72 460q0 202 142.5 344t342.5 142q202 0 343.5 -142t141.5 -344q0 -200 -141.5 -342.5t-343.5 -142.5q-200 0 -342.5 142.5t-142.5 342.5zM156 460q0 -166 117.5 -283t283.5 -117t283.5 117t117.5 283t-117.5 284t-283.5 118t-283.5 -118t-117.5 -284z" />
<glyph unicode="p" horiz-adv-x="1110" d="M92 -331v1199h80v-122q22 30 50 58q142 141 343 141t343 -141.5t142 -343.5q0 -200 -142 -342.5t-343 -142.5t-343 143q-28 28 -50 58v-507h-80zM172 377q22 -114 109 -200q118 -118 284 -118t283.5 117.5t117.5 283.5t-117.5 284t-283.5 118t-284 -118 q-87 -87 -109 -201v-166z" />
<glyph unicode="q" horiz-adv-x="1107" d="M60 460q0 202 142.5 343.5t342.5 141.5q202 0 344 -141q27 -28 50 -59v123h80v-1199h-80v508q-23 -31 -50 -59q-142 -143 -344 -143q-200 0 -342.5 142.5t-142.5 342.5zM144 460q0 -166 117.5 -283.5t283.5 -117.5t284 118q88 88 110 205v157q-22 117 -110 205 q-118 118 -284 118t-283.5 -118t-117.5 -284z" />
<glyph unicode="r" horiz-adv-x="406" d="M77 0v868h80v-158q24 35 57 68q73 73 148 97l44 -77q-65 -13 -132 -81q-113 -112 -117 -269v-448h-80z" />
<glyph unicode="s" horiz-adv-x="644" d="M55 240l79 20q0 -77 52.5 -129.5t125.5 -52.5t126 52.5t53 127.5q0 73 -53 125q-28 28 -114 83q-101 55 -140 94q-61 61 -61 147t61 147.5t147 61.5t143 -57q55 -55 55 -126v-4l-69 -28q-9 67 -42 101t-87 34q-53 0 -91 -38t-38 -91t38 -91q22 -23 93 -68 q113 -61 161 -109q75 -76 75 -181q0 -108 -75 -183.5t-182 -75.5t-182 75.5t-75 165.5z" />
<glyph unicode="t" horiz-adv-x="497" d="M32 788v80h177v369h79v-369h177v-80h-177v-788h-79v788h-177z" />
<glyph unicode="u" horiz-adv-x="880" d="M87 327v542h80v-535q0 -110 80 -188q79 -79 197 -79q110 0 189.5 78.5t79.5 188.5v535h80v-542q-3 -147 -99 -243t-249 -96q-163 0 -259 96t-99 243z" />
<glyph unicode="v" horiz-adv-x="814" d="M0 868h93l312 -743l316 743h93l-358 -868h-102z" />
<glyph unicode="w" horiz-adv-x="1094" d="M0 868h92l221 -743l181 595h105l177 -595l227 743h91l-267 -868h-102l-179 592l-182 -592h-102z" />
<glyph unicode="x" horiz-adv-x="637" d="M0 0l273 472l3 4l-3 5l-268 387h93l221 -307l220 307h94l-268 -387l-3 -5l3 -4l272 -472h-92l-226 391l-226 -391h-93z" />
<glyph unicode="y" horiz-adv-x="779" d="M15 868h89l285 -606l286 606h89l-329 -705h-1l-229 -493h-89l229 491z" />
<glyph unicode="z" horiz-adv-x="743" d="M62 0l448 776h-448v79h585l-449 -775h483v-80h-619z" />
<glyph unicode="{" horiz-adv-x="649" d="M55 565v92q10 -1 19 -1q53 0 106 30q95 54 124 158q16 59 16 124q0 36 -5 174q-12 60 -12 113q0 57 14 108q26 96 116 146q58 33 120 33q17 0 41 -4v-80q-25 3 -39 3q-42 0 -81 -21q-60 -33 -78 -99q-12 -45 -12 -101q0 -25 1 -52q15 -64 15 -226q0 -71 -19 -140 q-38 -135 -173 -211q135 -76 173 -211q19 -68 19 -139q0 -162 -15 -226q-1 -27 -1 -52q0 -57 12 -102q17 -65 78 -98q40 -22 83 -22q13 0 37 3v-80q-24 -3 -41 -3q-62 0 -120 32q-90 51 -116 148q-14 50 -14 107q0 54 12 113q5 38 5 173q0 66 -16 125q-29 103 -124 157 q-53 30 -106 30q-9 0 -19 -1z" />
<glyph unicode="|" horiz-adv-x="190" d="M55 -124v1670h80v-1670h-80z" />
<glyph unicode="}" horiz-adv-x="649" d="M55 -236q24 -3 37 -3q43 0 83 22q61 33 78 98q12 45 12 102q0 25 -1 52q-15 64 -15 226q0 71 19 139q38 135 173 211q-135 76 -173 211q-19 69 -19 140q0 162 15 226q1 27 1 52q0 56 -12 101q-18 66 -78 99q-39 21 -81 21q-14 0 -39 -3v80q24 4 41 4q62 0 120 -33 q90 -50 116 -146q14 -51 14 -108q0 -53 -12 -113q-5 -138 -5 -174q0 -65 16 -124q29 -104 124 -158q53 -30 106 -30q9 0 19 1v-92q-10 1 -19 1q-53 0 -106 -30q-95 -54 -124 -157q-16 -59 -16 -125q0 -135 5 -173q12 -59 12 -113q0 -57 -14 -107q-26 -97 -116 -148 q-58 -32 -120 -32q-17 0 -41 3v80z" />
<glyph unicode="~" horiz-adv-x="1057" d="M75 625q2 42 19 85q41 98 139 131q22 7 49 7q93 0 246 -87q166 -97 242 -97q13 0 23 3q68 20 96 88q13 34 13 69l80 -13q-3 -42 -20 -86q-41 -98 -138 -130q-22 -7 -49 -7q-93 0 -246 87q-168 96 -242 96q-12 0 -23 -2q-68 -21 -95 -89q-14 -34 -14 -68z" />
<glyph unicode="&#xa1;" horiz-adv-x="269" d="M49 1347q0 33 23.5 56t55.5 23q33 0 56.5 -23t23.5 -56t-23.5 -56t-56.5 -23q-32 0 -55.5 23t-23.5 56zM90 0v1170h80v-1170h-80z" />
<glyph unicode="&#xa2;" d="M176 938q0 163 116 279q88 88 204 109v143h79v-137q159 -1 273 -115q23 -24 46 -54l-77 -29q-13 16 -24 28q-91 90 -218 92v-631q127 2 218 93q11 11 24 27l77 -28q-23 -31 -46 -55q-114 -114 -273 -116v-136h-79v142q-116 21 -204 110q-116 115 -116 278zM255 938 q0 -130 92 -222q65 -66 149 -85v615q-84 -20 -149 -84q-92 -93 -92 -224z" />
<glyph unicode="&#xa3;" d="M124 18q110 97 138 131q95 113 95 258q0 20 -1 39q-2 22 -6 44h-201v80h184q-23 84 -66 167q-98 159 -110 303q-2 17 -2 34q0 122 81 220q91 108 235 122h34q123 0 221 -81q109 -93 123 -236q2 -20 2 -39q0 -55 -19 -100l-76 25q13 38 13 84q0 13 -1 25q-10 109 -94 179 q-75 62 -168 62q-13 0 -25 -1q-110 -9 -180 -93q-62 -75 -62 -167q0 -14 1 -27q9 -100 69 -226q76 -122 107 -251h175v-80h-160q3 -18 5 -38q2 -19 2 -38q0 -181 -151 -358q111 39 218 39q63 0 126 -14q88 -20 166 -20q71 0 134 16l15 -79q-72 -17 -149 -17q-78 0 -161 19 q-87 19 -153 19q-60 0 -104 -15q-92 -34 -178 -77z" />
<glyph unicode="&#xa4;" d="M132 665l123 123q-79 96 -79 224t79 223l-123 123l57 57l122 -123q96 78 224 78t223 -78l123 123l57 -57l-123 -123q79 -95 79 -223t-79 -224l123 -123l-57 -56l-123 123q-95 -79 -223 -79t-224 79l-122 -123zM256 1012q0 -96 55 -167q12 -16 27 -30q14 -15 30 -27 q71 -55 167 -55q95 0 167 55q16 12 31 27q14 14 25 30q56 71 56 167q0 95 -56 167q-11 16 -25 31q-15 14 -31 25q-72 56 -167 56q-96 0 -167 -56q-16 -11 -30 -25q-15 -15 -27 -31q-55 -72 -55 -167z" />
<glyph unicode="&#xa5;" d="M9 1414h91l430 -747h9l431 747h91l-432 -747h260v-79h-306l-8 -16v-90h314v-80h-314v-402h-80v402h-313v80h313v90l-9 16h-304v79h258z" />
<glyph unicode="&#xa6;" horiz-adv-x="190" d="M55 -331v718h80v-718h-80zM55 696v718h80v-718h-80z" />
<glyph unicode="&#xa7;" d="M112 906q0 174 79 252q31 32 54 45q-5 26 -5 54q0 122 87.5 210t212.5 88q123 0 212 -87q48 -47 67 -105l-72 -29q-16 44 -52 80q-64 63 -155 63t-155.5 -64t-64.5 -156q0 -91 64 -155q60 -59 166 -109q170 -55 286 -170q122 -122 122 -295q0 -175 -78 -253 q-32 -32 -54 -45q4 -26 4 -54q0 -122 -87.5 -210t-211.5 -88t-212 88q-49 46 -67 105l71 28q16 -43 52 -80q65 -63 156 -63t155.5 64t64.5 156q0 91 -65 155q-60 60 -166 109q-169 55 -285 171q-123 122 -123 295zM190 906q0 -141 100 -241q87 -87 214 -139 q151 -51 239 -138q38 -38 59 -83q10 12 23 25q56 56 56 198q0 140 -100 240q-88 87 -215 139q-151 51 -238 138q-38 38 -60 83q-9 -12 -23 -25q-55 -56 -55 -197z" />
<glyph unicode="&#xa8;" horiz-adv-x="574" d="M75 1227q0 32 23.5 55t56.5 23q32 0 55.5 -23t23.5 -55q0 -34 -23.5 -57t-55.5 -23q-33 0 -56.5 23t-23.5 57zM340 1227q0 32 23.5 55t56.5 23q32 0 55.5 -23t23.5 -55q0 -34 -23.5 -57t-55.5 -23q-33 0 -56.5 23t-23.5 57z" />
<glyph unicode="&#xa9;" horiz-adv-x="1075" d="M0 533q0 223 157.5 380.5t380.5 157.5q222 0 379.5 -157.5t157.5 -380.5t-157.5 -380.5t-379.5 -157.5q-223 0 -380.5 157.5t-157.5 380.5zM77 533q0 -191 135 -326t326 -135t325.5 135t134.5 326t-134.5 326t-325.5 135t-326 -135t-135 -326zM248 533q0 124 88 211.5 t212 87.5t212 -87q17 -19 41 -51l-73 -27l-22 25q-66 65 -158 65q-93 0 -159 -65.5t-66 -158.5t66 -159t159 -66q92 0 158 66q9 9 22 25l73 -28q-24 -32 -41 -50q-88 -88 -212 -88t-212 88t-88 212z" />
<glyph unicode="&#xaa;" horiz-adv-x="554" d="M55 1174q0 102 65.5 175.5t159.5 73.5q93 0 157 -83v45h62v-448h-62v52q-64 -63 -157 -63q-94 0 -159.5 73t-65.5 175zM119 1174q0 -75 47 -127t114 -52q66 0 112 52q37 39 45 90v73q-8 52 -45 92q-46 52 -112 52q-67 0 -114 -52.5t-47 -127.5z" />
<glyph unicode="&#xab;" horiz-adv-x="816" d="M55 425l396 425v-113l-291 -312l291 -311v-114zM359 425l402 425v-113l-290 -312l290 -311v-114z" />
<glyph unicode="&#xac;" d="M135 585v80h800v-419h-80v339h-720z" />
<glyph unicode="&#xad;" horiz-adv-x="596" d="M48 483v80h500v-80h-500z" />
<glyph unicode="&#xae;" horiz-adv-x="973" d="M55 989q0 179 126 305.5t306 126.5q178 0 304.5 -126.5t126.5 -305.5t-126 -306q-45 -44 -124 -85t-181 -41q-180 0 -306 126.5t-126 305.5zM119 989q0 -152 108 -260q51 -51 112 -78q24 -10 50 -18q46 -12 98 -12q68 0 121 20l-115 179h-100v-137h-62v583h182 q79 -10 134 -65q64 -65 64 -157q0 -94 -64 -159q-47 -45 -86 -55l106 -163q40 24 79 62q108 108 108 260t-107.5 259.5t-259.5 107.5q-153 0 -260.5 -107.5t-107.5 -259.5zM393 884h96q66 0 113 47t47 113t-47 113t-113 47h-96v-320z" />
<glyph unicode="&#xaf;" horiz-adv-x="671" d="M75 1123v80h521v-80h-521z" />
<glyph unicode="&#xb0;" horiz-adv-x="382" d="M44 1210q0 60 43 103.5t104 43.5t104 -43.5t43 -103.5q0 -61 -43 -104t-104 -43t-104 43t-43 104zM109 1210q0 -34 24 -58.5t58 -24.5t58 24.5t24 58.5t-24 58t-58 24t-58 -24t-24 -58z" />
<glyph unicode="&#xb1;" d="M85 0v80h410v403h-410v80h410v410h80v-410h410v-80h-410v-403h410v-80h-900z" />
<glyph unicode="&#xb2;" horiz-adv-x="426" d="M5 697q295 450 315.5 485.5t20.5 65.5q0 15 -4 31q-11 47 -51 73q-29 17 -60 17q-14 0 -28 -3q-47 -11 -72 -52q-15 -22 -20 -62l-76 11q5 55 29 92q44 69 121 87q24 5 46 5q55 0 102 -30q69 -43 86 -121q7 -28 7 -53q0 -47 -25 -92t-245 -378h270v-76h-416z" />
<glyph unicode="&#xb3;" horiz-adv-x="467" d="M5 897l75 27q9 -75 47 -113q44 -44 106 -44q63 0 107 44t44 107t-43.5 110.5t-132.5 64.5l-50 2v74q56 1 79 10t49.5 37.5t26.5 66.5t-26 64.5t-64 26.5q-37 0 -64 -27q-15 -15 -29 -51l-70 28q16 51 43 78q50 49 120 49t119.5 -49.5t49.5 -118.5q0 -70 -62 -145 q21 -7 67 -56q65 -70 65 -164q0 -95 -67 -162t-162 -67q-94 0 -162 67q-53 54 -66 141z" />
<glyph unicode="&#xb4;" horiz-adv-x="441" d="M75 1072l144 165h147l-217 -165h-74z" />
<glyph unicode="&#xb5;" horiz-adv-x="815" d="M78 -331v1199h80v-646q17 -38 53 -74q79 -76 189 -76q109 0 190 78q51 51 69 115v603h78v-868h-78v98q-4 -4 -9 -10q-97 -96 -250 -96q-142 0 -242 97v-420h-80z" />
<glyph unicode="&#xb6;" d="M77 1033q0 191 135 326q113 113 275 135h71v1h434v-79h-78v-1747h-80v1747h-82v-1747h-79v902h-135q-191 0 -326 135t-135 327z" />
<glyph unicode="&#xb7;" horiz-adv-x="245" d="M55 707q0 28 20 47.5t48 19.5q27 0 47 -19.5t20 -47.5t-20 -47.5t-47 -19.5q-28 0 -48 19.5t-20 47.5z" />
<glyph unicode="&#x2219;" horiz-adv-x="245" d="M55 707q0 28 20 47.5t48 19.5q27 0 47 -19.5t20 -47.5t-20 -47.5t-47 -19.5q-28 0 -48 19.5t-20 47.5z" />
<glyph unicode="&#xb8;" horiz-adv-x="434" d="M105 -111l70 119h81l-56 -64q32 6 58 6q51 0 80 -23q40 -31 40 -74v-9q-5 -49 -61 -90q-49 -28 -104 -28q-31 0 -65 9l17 51q28 -11 55 -11q31 0 60 15q25 18 30 43q1 5 1 11q0 18 -14 32q-18 17 -49 18h-4q-29 0 -47 -6q-19 -7 -57 -33z" />
<glyph unicode="&#xb9;" horiz-adv-x="396" d="M5 689v76h157v537l-56 -37l-61 45l193 139v-684h153v-76h-386z" />
<glyph unicode="&#xba;" horiz-adv-x="532" d="M55 1174q0 102 58.5 175.5t142.5 73.5h20q84 0 142.5 -73.5t58.5 -175.5t-58.5 -175t-142.5 -73h-20q-84 0 -142.5 73t-58.5 175zM114 1174q0 -75 42 -127q38 -47 110 -52q72 5 111 52q42 52 42 127t-42 128q-39 47 -111 52q-72 -5 -110 -52q-42 -53 -42 -128z" />
<glyph unicode="&#xbb;" horiz-adv-x="816" d="M55 0v114l289 311l-289 312v113l402 -425zM365 0v114l290 311l-290 312v113l396 -425z" />
<glyph unicode="&#xbc;" horiz-adv-x="1537" d="M5 0l1413 1414h114l-1415 -1414h-112zM161 689v76h157v537l-56 -37l-61 45l193 139v-684h153v-76h-386zM817 182l382 638v-562h67v-76h-67v-182h-76v182h-306zM949 258h174v291z" />
<glyph unicode="&#xbd;" horiz-adv-x="1537" d="M5 0l1413 1414h114l-1415 -1414h-112zM161 689v76h157v537l-56 -37l-61 45l193 139v-684h153v-76h-386zM933 0q296 451 316 486.5t20 65.5q0 14 -4 30q-10 48 -51 73q-29 18 -60 18q-14 0 -28 -4q-47 -10 -72 -51q-15 -23 -20 -62l-76 11q5 55 29 92q44 68 121 86 q24 6 46 6q55 0 103 -31q68 -43 85 -120q7 -28 7 -54q0 -46 -25 -91t-245 -379h270v-76h-416z" />
<glyph unicode="&#xbe;" horiz-adv-x="1537" d="M5 0l1413 1414h114l-1415 -1414h-112zM135 867l75 27q9 -75 47 -113q44 -44 106 -44q63 0 107 44t44 107t-43.5 110.5t-132.5 64.5l-50 2v74q56 1 79 10t49.5 37.5t26.5 66.5t-26 64.5t-64 26.5q-37 0 -64 -27q-15 -15 -29 -51l-70 28q16 51 43 78q50 49 120 49 t119.5 -49.5t49.5 -118.5q0 -70 -62 -145q21 -7 67 -56q65 -70 65 -164q0 -95 -67 -162t-162 -67q-94 0 -162 67q-53 54 -66 141zM817 182l382 638v-562h67v-76h-67v-182h-76v182h-306zM949 258h174v291z" />
<glyph unicode="&#xbf;" horiz-adv-x="795" d="M34 362q0 105 64 200q56 78 199 192q92 83 119 123q37 53 37 115q0 18 -3 37q-9 48 -30 75l56 65q40 -44 54 -126q5 -27 5 -54q0 -85 -52 -159q-44 -63 -172 -166q-111 -101 -145 -150q-51 -71 -51 -154q0 -24 4 -49q20 -113 114 -179q74 -50 156 -50q24 0 49 4 q110 20 175 113q53 75 53 151q0 19 -4 39l85 -6q4 -20 4 -41q0 -90 -69 -189q-83 -121 -230 -147q-34 -6 -67 -6q-106 0 -199 64q-120 85 -146 233q-6 33 -6 65zM353 1348q0 33 23.5 56t55.5 23q33 0 56.5 -23t23.5 -56t-23.5 -56t-56.5 -23q-32 0 -55.5 23t-23.5 56z" />
<glyph unicode="&#xc0;" horiz-adv-x="1116" d="M-1 0l519 1414h82l513 -1414h-84l-226 622h-489l-230 -622h-85zM343 701h431l-215 593zM362 1703h147l144 -165h-75z" />
<glyph unicode="&#xc1;" horiz-adv-x="1116" d="M-1 0l519 1414h82l513 -1414h-84l-226 622h-489l-230 -622h-85zM343 701h431l-215 593zM459 1538l144 165h147l-217 -165h-74z" />
<glyph unicode="&#xc2;" horiz-adv-x="1116" d="M-1 0l519 1414h82l513 -1414h-84l-226 622h-489l-230 -622h-85zM304 1529l202 207h92l211 -207h-92l-165 126l-155 -126h-93zM343 701h431l-215 593z" />
<glyph unicode="&#xc3;" horiz-adv-x="1116" d="M-1 0l519 1414h82l513 -1414h-84l-226 622h-489l-230 -622h-85zM343 701h431l-215 593zM365 1580q1 37 9 60q18 55 63 74q11 5 25 5q41 0 104 -46q59 -43 82 -43h4q18 7 26 32q4 14 4 49l66 -13q-2 -37 -10 -61q-18 -55 -62 -74q-12 -4 -25 -4q-41 0 -105 45 q-59 44 -82 44q-3 0 -4 -1q-17 -6 -25 -32q-5 -14 -5 -49z" />
<glyph unicode="&#xc4;" horiz-adv-x="1116" d="M-1 0l519 1414h82l513 -1414h-84l-226 622h-489l-230 -622h-85zM343 701h431l-215 593zM344 1693q0 32 23.5 55t56.5 23q32 0 55.5 -23t23.5 -55q0 -34 -23.5 -57t-55.5 -23q-33 0 -56.5 23t-23.5 57zM609 1693q0 32 23.5 55t56.5 23q32 0 55.5 -23t23.5 -55 q0 -34 -23.5 -57t-55.5 -23q-33 0 -56.5 23t-23.5 57z" />
<glyph unicode="&#xc5;" horiz-adv-x="1116" d="M-1 0l519 1414h82l513 -1414h-84l-226 622h-489l-230 -622h-85zM343 701h431l-215 593zM448 1622q0 45 32 77t77 32t76.5 -32t31.5 -77q0 -44 -31.5 -75.5t-76.5 -31.5t-77 31.5t-32 75.5zM505 1622q0 -20 15 -35t37 -15q20 0 35 15t15 35q0 22 -15 37t-35 15 q-22 0 -37 -15t-15 -37z" />
<glyph unicode="&#xc6;" horiz-adv-x="1442" d="M55 0l615 1414h717v-80h-627v-587h627v-80h-627v-587h627v-80h-706v542h-300l-241 -542h-85zM410 621h271v629z" />
<glyph unicode="&#xc7;" horiz-adv-x="1347" d="M74 707q0 299 211.5 511.5t512.5 212.5q280 0 487 -189l-61 -54q-182 161 -426 161q-266 0 -454.5 -188t-188.5 -454q0 -267 188.5 -455t454.5 -188q244 0 426 161l61 -54q-207 -188 -487 -188q-61 0 -118 9l-42 -48q32 6 58 6q51 0 80 -23q40 -31 40 -74v-9 q-5 -49 -61 -90q-49 -28 -104 -28q-31 0 -65 9l17 51q28 -11 55 -11q31 0 60 15q25 18 30 43q1 5 1 11q0 18 -14 32q-18 17 -49 18h-4q-29 0 -47 -6q-19 -7 -57 -33l-35 34l68 116q-183 47 -325 190q-212 211 -212 512z" />
<glyph unicode="&#xc8;" horiz-adv-x="931" d="M112 0v1414h707v-80h-627v-587h627v-80h-627v-587h627v-80h-707zM272 1783h147l144 -165h-75z" />
<glyph unicode="&#xc9;" horiz-adv-x="931" d="M112 0v1414h707v-80h-627v-587h627v-80h-627v-587h627v-80h-707zM369 1618l144 165h147l-217 -165h-74z" />
<glyph unicode="&#xca;" horiz-adv-x="931" d="M112 0v1414h707v-80h-627v-587h627v-80h-627v-587h627v-80h-707zM213 1609l202 207h92l211 -207h-92l-165 126l-155 -126h-93z" />
<glyph unicode="&#xcb;" horiz-adv-x="931" d="M112 0v1414h707v-80h-627v-587h627v-80h-627v-587h627v-80h-707zM254 1773q0 32 23.5 55t56.5 23q32 0 55.5 -23t23.5 -55q0 -34 -23.5 -57t-55.5 -23q-33 0 -56.5 23t-23.5 57zM519 1773q0 32 23.5 55t56.5 23q32 0 55.5 -23t23.5 -55q0 -34 -23.5 -57t-55.5 -23 q-33 0 -56.5 23t-23.5 57z" />
<glyph unicode="&#xcc;" horiz-adv-x="324" d="M-32 1783h147l144 -165h-75zM122 0v1414h80v-1414h-80z" />
<glyph unicode="&#xcd;" horiz-adv-x="324" d="M65 1618l144 165h147l-217 -165h-74zM122 0v1414h80v-1414h-80z" />
<glyph unicode="&#xce;" horiz-adv-x="324" d="M-90 1609l202 207h92l211 -207h-92l-165 126l-155 -126h-93zM123 0v1414h80v-1414h-80z" />
<glyph unicode="&#xcf;" horiz-adv-x="324" d="M-50 1773q0 32 23.5 55t56.5 23q32 0 55.5 -23t23.5 -55q0 -34 -23.5 -57t-55.5 -23q-33 0 -56.5 23t-23.5 57zM122 0v1414h80v-1414h-80zM215 1773q0 32 23.5 55t56.5 23q32 0 55.5 -23t23.5 -55q0 -34 -23.5 -57t-55.5 -23q-33 0 -56.5 23t-23.5 57z" />
<glyph unicode="&#xd0;" horiz-adv-x="1240" d="M20 667v80h128v667h262q349 -2 541 -195q212 -213 212 -512q0 -301 -212 -513q-192 -192 -541 -194h-262v667h-128zM228 82h181q305 0 481 170q188 188 188 455q0 266 -188 455q-176 169 -481 169h-181v-584h492v-80h-492v-585z" />
<glyph unicode="&#xd1;" horiz-adv-x="1339" d="M109 0v1414h101l940 -1317v1317h80v-1414h-123l-918 1286v-1286h-80zM478 1580q1 37 9 60q18 55 63 74q11 5 25 5q41 0 104 -46q59 -43 82 -43h4q18 7 26 32q4 14 4 49l66 -13q-2 -37 -10 -61q-18 -55 -62 -74q-12 -4 -25 -4q-41 0 -105 45q-59 44 -82 44q-3 0 -4 -1 q-17 -6 -25 -32q-5 -14 -5 -49z" />
<glyph unicode="&#xd2;" horiz-adv-x="1575" d="M62 709q0 300 212.5 512.5t512.5 212.5q301 0 513.5 -212.5t212.5 -512.5q0 -301 -212.5 -513.5t-513.5 -212.5q-300 0 -512.5 212.5t-212.5 513.5zM143 709q0 -267 189 -456t455 -189q267 0 456 189t189 456q0 266 -189 455t-456 189q-266 0 -455 -189t-189 -455z M594 1783h147l144 -165h-75z" />
<glyph unicode="&#xd3;" horiz-adv-x="1575" d="M62 709q0 300 212.5 512.5t512.5 212.5q301 0 513.5 -212.5t212.5 -512.5q0 -301 -212.5 -513.5t-513.5 -212.5q-300 0 -512.5 212.5t-212.5 513.5zM143 709q0 -267 189 -456t455 -189q267 0 456 189t189 456q0 266 -189 455t-456 189q-266 0 -455 -189t-189 -455z M691 1618l144 165h147l-217 -165h-74z" />
<glyph unicode="&#xd4;" horiz-adv-x="1575" d="M62 709q0 300 212.5 512.5t512.5 212.5q301 0 513.5 -212.5t212.5 -512.5q0 -301 -212.5 -513.5t-513.5 -212.5q-300 0 -512.5 212.5t-212.5 513.5zM143 709q0 -267 189 -456t455 -189q267 0 456 189t189 456q0 266 -189 455t-456 189q-266 0 -455 -189t-189 -455z M535 1609l202 207h92l211 -207h-92l-165 126l-155 -126h-93z" />
<glyph unicode="&#xd5;" horiz-adv-x="1575" d="M62 709q0 300 212.5 512.5t512.5 212.5q301 0 513.5 -212.5t212.5 -512.5q0 -301 -212.5 -513.5t-513.5 -212.5q-300 0 -512.5 212.5t-212.5 513.5zM143 709q0 -267 189 -456t455 -189q267 0 456 189t189 456q0 266 -189 455t-456 189q-266 0 -455 -189t-189 -455z M596 1660q1 37 9 60q18 55 63 74q11 5 25 5q41 0 104 -46q59 -43 82 -43h4q18 7 26 32q4 14 4 49l66 -13q-2 -37 -10 -61q-18 -55 -62 -74q-12 -4 -25 -4q-41 0 -105 45q-59 44 -82 44q-3 0 -4 -1q-17 -6 -25 -32q-5 -14 -5 -49z" />
<glyph unicode="&#xd6;" horiz-adv-x="1575" d="M62 709q0 300 212.5 512.5t512.5 212.5q301 0 513.5 -212.5t212.5 -512.5q0 -301 -212.5 -513.5t-513.5 -212.5q-300 0 -512.5 212.5t-212.5 513.5zM143 709q0 -267 189 -456t455 -189q267 0 456 189t189 456q0 266 -189 455t-456 189q-266 0 -455 -189t-189 -455z M576 1773q0 32 23.5 55t56.5 23q32 0 55.5 -23t23.5 -55q0 -34 -23.5 -57t-55.5 -23q-33 0 -56.5 23t-23.5 57zM841 1773q0 32 23.5 55t56.5 23q32 0 55.5 -23t23.5 -55q0 -34 -23.5 -57t-55.5 -23q-33 0 -56.5 23t-23.5 57z" />
<glyph unicode="&#xd7;" d="M188 233l290 290l-290 290l57 56l289 -289l290 289l57 -56l-290 -290l290 -290l-57 -56l-290 289l-289 -289z" />
<glyph unicode="&#xd8;" horiz-adv-x="1647" d="M98 709q0 300 212.5 512.5t512.5 212.5q146 0 271 -50l76 162l72 -33l-76 -163q91 -49 171 -128q212 -213 212 -513q0 -301 -212.5 -513.5t-513.5 -212.5q-145 0 -270 51l-76 -163l-72 34l76 162q-91 50 -170 129q-213 212 -213 513zM179 709q0 -267 189 -456 q68 -68 147 -113l544 1170q-108 43 -236 43q-266 0 -455 -189t-189 -455zM587 107q109 -43 236 -43q267 0 456 189t189 456q0 266 -189 456q-69 68 -147 111z" />
<glyph unicode="&#xd9;" horiz-adv-x="1147" d="M112 449v965h80v-965q0 -157 112 -269t270 -112t269.5 112t111.5 269v965h80v-1016q-22 -162 -135 -275q-135 -135 -326 -135q-192 0 -327 135t-135 326zM380 1783h147l144 -165h-75z" />
<glyph unicode="&#xda;" horiz-adv-x="1147" d="M112 449v965h80v-965q0 -157 112 -269t270 -112t269.5 112t111.5 269v965h80v-1016q-22 -162 -135 -275q-135 -135 -326 -135q-192 0 -327 135t-135 326zM477 1618l144 165h147l-217 -165h-74z" />
<glyph unicode="&#xdb;" horiz-adv-x="1147" d="M112 449v965h80v-965q0 -157 112 -269t270 -112t269.5 112t111.5 269v965h80v-1016q-22 -162 -135 -275q-135 -135 -326 -135q-192 0 -327 135t-135 326zM321 1609l202 207h92l211 -207h-92l-165 126l-155 -126h-93z" />
<glyph unicode="&#xdc;" horiz-adv-x="1147" d="M112 449v965h80v-965q0 -157 112 -269t270 -112t269.5 112t111.5 269v965h80v-1016q-22 -162 -135 -275q-135 -135 -326 -135q-192 0 -327 135t-135 326zM362 1773q0 32 23.5 55t56.5 23q32 0 55.5 -23t23.5 -55q0 -34 -23.5 -57t-55.5 -23q-33 0 -56.5 23t-23.5 57z M627 1773q0 32 23.5 55t56.5 23q32 0 55.5 -23t23.5 -55q0 -34 -23.5 -57t-55.5 -23q-33 0 -56.5 23t-23.5 57z" />
<glyph unicode="&#xdd;" horiz-adv-x="1116" d="M32 1414h91l435 -754l435 754h91l-486 -842v-572h-80v572zM461 1618l144 165h147l-217 -165h-74z" />
<glyph unicode="&#xde;" horiz-adv-x="946" d="M98 0v1414h80v-245h291q162 -22 275 -135q135 -135 135 -326q0 -192 -135 -327t-326 -135h-240v-246h-80zM178 326h240q157 0 269 112t112 270t-112 269.5t-269 111.5h-240v-763z" />
<glyph unicode="&#xdf;" horiz-adv-x="978" d="M112 0v1193q13 64 56 116q79 97 203 111q19 2 37 2q104 0 186 -66q97 -79 110 -201q3 -24 3 -46q0 -95 -48 -158q-59 -79 -115 -110q132 -27 226 -108q134 -116 153 -289q3 -26 3 -51q0 -143 -93 -259q-110 -136 -284 -155q-25 -3 -50 -3q-142 0 -259 94l53 64 q93 -74 207 -74q20 0 40 2q140 16 228 125q74 91 74 206q0 20 -2 42q-15 139 -122.5 233t-195 102.5t-93.5 49.5q-1 4 -1 9q0 34 44 57q50 26 104 98q46 61 46 134q0 13 -2 27q-10 91 -80 147q-59 47 -133 47q-13 0 -27 -2q-88 -9 -146 -79q-30 -38 -42 -82v-1176h-80z" />
<glyph unicode="&#xe0;" horiz-adv-x="1122" d="M74 460q0 202 142.5 344t342.5 142q202 0 344 -142q27 -28 50 -59v123h80v-868h-80v177q-23 -31 -50 -59q-142 -143 -344 -143q-200 0 -342.5 142.5t-142.5 342.5zM158 460q0 -166 117.5 -283t283.5 -117t284 118q88 88 110 204v157q-22 117 -110 205q-118 118 -284 118 t-283.5 -118t-117.5 -284zM360 1237h147l144 -165h-75z" />
<glyph unicode="&#xe1;" horiz-adv-x="1122" d="M74 460q0 202 142.5 344t342.5 142q202 0 344 -142q27 -28 50 -59v123h80v-868h-80v177q-23 -31 -50 -59q-142 -143 -344 -143q-200 0 -342.5 142.5t-142.5 342.5zM158 460q0 -166 117.5 -283t283.5 -117t284 118q88 88 110 204v157q-22 117 -110 205q-118 118 -284 118 t-283.5 -118t-117.5 -284zM457 1072l144 165h147l-217 -165h-74z" />
<glyph unicode="&#xe2;" horiz-adv-x="1122" d="M74 460q0 202 142.5 344t342.5 142q202 0 344 -142q27 -28 50 -59v123h80v-868h-80v177q-23 -31 -50 -59q-142 -143 -344 -143q-200 0 -342.5 142.5t-142.5 342.5zM158 460q0 -166 117.5 -283t283.5 -117t284 118q88 88 110 204v157q-22 117 -110 205q-118 118 -284 118 t-283.5 -118t-117.5 -284zM301 1063l202 207h92l211 -207h-92l-165 126l-155 -126h-93z" />
<glyph unicode="&#xe3;" horiz-adv-x="1122" d="M74 460q0 202 142.5 344t342.5 142q202 0 344 -142q27 -28 50 -59v123h80v-868h-80v177q-23 -31 -50 -59q-142 -143 -344 -143q-200 0 -342.5 142.5t-142.5 342.5zM158 460q0 -166 117.5 -283t283.5 -117t284 118q88 88 110 204v157q-22 117 -110 205q-118 118 -284 118 t-283.5 -118t-117.5 -284zM362 1114q1 37 9 60q18 55 63 74q11 5 25 5q41 0 104 -46q59 -43 82 -43h4q18 7 26 32q4 14 4 49l66 -13q-2 -37 -10 -61q-18 -55 -62 -74q-12 -4 -25 -4q-41 0 -105 45q-59 44 -82 44q-3 0 -4 -1q-17 -6 -25 -32q-5 -14 -5 -49z" />
<glyph unicode="&#xe4;" horiz-adv-x="1122" d="M74 460q0 202 142.5 344t342.5 142q202 0 344 -142q27 -28 50 -59v123h80v-868h-80v177q-23 -31 -50 -59q-142 -143 -344 -143q-200 0 -342.5 142.5t-142.5 342.5zM158 460q0 -166 117.5 -283t283.5 -117t284 118q88 88 110 204v157q-22 117 -110 205q-118 118 -284 118 t-283.5 -118t-117.5 -284zM342 1227q0 32 23.5 55t56.5 23q32 0 55.5 -23t23.5 -55q0 -34 -23.5 -57t-55.5 -23q-33 0 -56.5 23t-23.5 57zM607 1227q0 32 23.5 55t56.5 23q32 0 55.5 -23t23.5 -55q0 -34 -23.5 -57t-55.5 -23q-33 0 -56.5 23t-23.5 57z" />
<glyph unicode="&#xe5;" horiz-adv-x="1122" d="M74 460q0 202 143 344q127 127 302 141q-23 7 -42 26q-32 31 -32 75q0 45 32 77t77 32t76.5 -32t31.5 -77q0 -44 -31 -75q-18 -18 -40 -26q181 -10 312 -141q27 -28 50 -59v123h80v-868h-80v177q-23 -31 -50 -59q-142 -143 -344 -143q-200 0 -342.5 142.5t-142.5 342.5z M158 460q0 -166 117.5 -283t283.5 -117t284 118q88 88 110 204v157q-22 117 -110 205q-118 118 -284 118t-283.5 -118t-117.5 -284zM502 1046q0 -20 15 -35t37 -15q20 0 35 15t15 35q0 22 -15 37t-35 15q-22 0 -37 -15t-15 -37z" />
<glyph unicode="&#xe6;" horiz-adv-x="1873" d="M74 460q0 202 142.5 344t342.5 142q202 0 344 -142q27 -28 50 -59v123h80v-48q137 126 326 126q201 0 343 -142q126 -126 131 -299l-800 1v-280q18 -25 42 -48q118 -118 284 -118t283 118q21 20 38 42l85 -30q-15 -25 -63 -72q-142 -143 -343 -143q-189 0 -326 127v-102 h-80v177q-23 -31 -50 -59q-142 -143 -344 -143q-200 0 -342.5 142.5t-142.5 342.5zM158 460q0 -166 117.5 -283t283.5 -117t284 118q42 42 69 90q30 53 41 114v157q-11 61 -41 114q-27 49 -69 91q-118 118 -284 118t-283.5 -118t-117.5 -284zM1033 586h705q-28 91 -96 158 q-117 118 -283 118t-284 -118q-24 -24 -42 -49v-109z" />
<glyph unicode="&#xe7;" horiz-adv-x="985" d="M52 461q0 201 142.5 343t342.5 142q202 0 344 -142q29 -29 52 -60l-84 -31q-13 16 -28 32q-118 117 -284 117q-165 0 -282.5 -117.5t-117.5 -283.5t117.5 -283.5t282.5 -117.5q166 0 284 118q15 15 28 31l84 -31q-23 -31 -52 -60q-142 -143 -344 -143q-29 0 -56 3 l-30 -34q32 6 58 6q51 0 80 -23q40 -31 40 -74v-9q-5 -49 -61 -90q-49 -28 -104 -28q-31 0 -65 9l17 51q28 -11 55 -11q31 0 60 15q25 18 30 43q1 5 1 11q0 18 -14 32q-18 17 -49 18h-4q-29 0 -47 -6q-19 -7 -57 -33l-35 34l59 101q-124 31 -220 128q-143 142 -143 343z" />
<glyph unicode="&#xe8;" horiz-adv-x="1042" d="M52 460q0 202 142.5 344t342.5 142q202 0 344 -142q125 -126 125 -299h-867q-3 -21 -3 -45q0 -166 117.5 -283t283.5 -117t284 118q20 20 38 42l85 -30q-15 -25 -63 -72q-142 -143 -344 -143q-200 0 -342.5 142.5t-142.5 342.5zM154 586h762q-28 91 -95 158 q-118 118 -284 118t-284 -118q-70 -71 -99 -158zM335 1237h147l144 -165h-75z" />
<glyph unicode="&#xe9;" horiz-adv-x="1042" d="M52 460q0 202 142.5 344t342.5 142q202 0 344 -142q125 -126 125 -299h-867q-3 -21 -3 -45q0 -166 117.5 -283t283.5 -117t284 118q20 20 38 42l85 -30q-15 -25 -63 -72q-142 -143 -344 -143q-200 0 -342.5 142.5t-142.5 342.5zM154 586h762q-28 91 -95 158 q-118 118 -284 118t-284 -118q-70 -71 -99 -158zM432 1072l144 165h147l-217 -165h-74z" />
<glyph unicode="&#xea;" horiz-adv-x="1042" d="M52 460q0 202 142.5 344t342.5 142q202 0 344 -142q125 -126 125 -299h-867q-3 -21 -3 -45q0 -166 117.5 -283t283.5 -117t284 118q20 20 38 42l85 -30q-15 -25 -63 -72q-142 -143 -344 -143q-200 0 -342.5 142.5t-142.5 342.5zM154 586h762q-28 91 -95 158 q-118 118 -284 118t-284 -118q-70 -71 -99 -158zM277 1063l202 207h92l211 -207h-92l-165 126l-155 -126h-93z" />
<glyph unicode="&#xeb;" horiz-adv-x="1042" d="M52 460q0 202 142.5 344t342.5 142q202 0 344 -142q125 -126 125 -299h-867q-3 -21 -3 -45q0 -166 117.5 -283t283.5 -117t284 118q20 20 38 42l85 -30q-15 -25 -63 -72q-142 -143 -344 -143q-200 0 -342.5 142.5t-142.5 342.5zM154 586h762q-28 91 -95 158 q-118 118 -284 118t-284 -118q-70 -71 -99 -158zM317 1227q0 32 23.5 55t56.5 23q32 0 55.5 -23t23.5 -55q0 -34 -23.5 -57t-55.5 -23q-33 0 -56.5 23t-23.5 57zM582 1227q0 32 23.5 55t56.5 23q32 0 55.5 -23t23.5 -55q0 -34 -23.5 -57t-55.5 -23q-33 0 -56.5 23t-23.5 57z " />
<glyph unicode="&#xec;" horiz-adv-x="369" d="M-9 1237h147l144 -165h-75zM145 0v868h79v-868h-79z" />
<glyph unicode="&#xed;" horiz-adv-x="369" d="M88 1072l144 165h147l-217 -165h-74zM145 0v868h79v-868h-79z" />
<glyph unicode="&#xee;" horiz-adv-x="369" d="M-68 1063l202 207h92l211 -207h-92l-165 126l-155 -126h-93zM145 0v868h79v-868h-79z" />
<glyph unicode="&#xef;" horiz-adv-x="369" d="M-27 1227q0 32 23.5 55t56.5 23q32 0 55.5 -23t23.5 -55q0 -34 -23.5 -57t-55.5 -23q-33 0 -56.5 23t-23.5 57zM146 0v868h79v-868h-79zM238 1227q0 32 23.5 55t56.5 23q32 0 55.5 -23t23.5 -55q0 -34 -23.5 -57t-55.5 -23q-33 0 -56.5 23t-23.5 57z" />
<glyph unicode="&#xf0;" horiz-adv-x="1114" d="M72 460q0 202 142.5 344t342.5 142q39 0 75 -5l-175 176l-143 -143h-114l200 200l-197 196h112l141 -140l137 137h114l-194 -194l388 -369q141 -142 141 -344q0 -200 -141.5 -342.5t-343.5 -142.5q-200 0 -342.5 142.5t-142.5 342.5zM156 460q0 -166 117.5 -283 t283.5 -117t283.5 117t117.5 283t-117.5 284t-283.5 118t-283.5 -118t-117.5 -284z" />
<glyph unicode="&#xf1;" horiz-adv-x="879" d="M99 0v868h80v-56q108 108 252 108q154 0 250.5 -96.5t98.5 -242.5v-581h-79v573q0 111 -80 189t-190 78q-109 0 -189 -77q-43 -43 -63 -89v-674h-80zM248 1114q1 37 9 60q18 55 63 74q11 5 25 5q41 0 104 -46q59 -43 82 -43h4q18 7 26 32q4 14 4 49l66 -13 q-2 -37 -10 -61q-18 -55 -62 -74q-12 -4 -25 -4q-41 0 -105 45q-59 44 -82 44q-3 0 -4 -1q-17 -6 -25 -32q-5 -14 -5 -49z" />
<glyph unicode="&#xf2;" horiz-adv-x="1114" d="M72 460q0 202 142.5 344t342.5 142q202 0 343.5 -142t141.5 -344q0 -200 -141.5 -342.5t-343.5 -142.5q-200 0 -342.5 142.5t-142.5 342.5zM156 460q0 -166 117.5 -283t283.5 -117t283.5 117t117.5 283t-117.5 284t-283.5 118t-283.5 -118t-117.5 -284zM363 1237h147 l144 -165h-75z" />
<glyph unicode="&#xf3;" horiz-adv-x="1114" d="M72 460q0 202 142.5 344t342.5 142q202 0 343.5 -142t141.5 -344q0 -200 -141.5 -342.5t-343.5 -142.5q-200 0 -342.5 142.5t-142.5 342.5zM156 460q0 -166 117.5 -283t283.5 -117t283.5 117t117.5 283t-117.5 284t-283.5 118t-283.5 -118t-117.5 -284zM460 1072l144 165 h147l-217 -165h-74z" />
<glyph unicode="&#xf4;" horiz-adv-x="1114" d="M72 460q0 202 142.5 344t342.5 142q202 0 343.5 -142t141.5 -344q0 -200 -141.5 -342.5t-343.5 -142.5q-200 0 -342.5 142.5t-142.5 342.5zM156 460q0 -166 117.5 -283t283.5 -117t283.5 117t117.5 283t-117.5 284t-283.5 118t-283.5 -118t-117.5 -284zM305 1063l202 207 h92l211 -207h-92l-165 126l-155 -126h-93z" />
<glyph unicode="&#xf5;" horiz-adv-x="1114" d="M72 460q0 202 142.5 344t342.5 142q202 0 343.5 -142t141.5 -344q0 -200 -141.5 -342.5t-343.5 -142.5q-200 0 -342.5 142.5t-142.5 342.5zM156 460q0 -166 117.5 -283t283.5 -117t283.5 117t117.5 283t-117.5 284t-283.5 118t-283.5 -118t-117.5 -284zM366 1114 q1 37 9 60q18 55 63 74q11 5 25 5q41 0 104 -46q59 -43 82 -43h4q18 7 26 32q4 14 4 49l66 -13q-2 -37 -10 -61q-18 -55 -62 -74q-12 -4 -25 -4q-41 0 -105 45q-59 44 -82 44q-3 0 -4 -1q-17 -6 -25 -32q-5 -14 -5 -49z" />
<glyph unicode="&#xf6;" horiz-adv-x="1114" d="M72 460q0 202 142.5 344t342.5 142q202 0 343.5 -142t141.5 -344q0 -200 -141.5 -342.5t-343.5 -142.5q-200 0 -342.5 142.5t-142.5 342.5zM156 460q0 -166 117.5 -283t283.5 -117t283.5 117t117.5 283t-117.5 284t-283.5 118t-283.5 -118t-117.5 -284zM345 1227 q0 32 23.5 55t56.5 23q32 0 55.5 -23t23.5 -55q0 -34 -23.5 -57t-55.5 -23q-33 0 -56.5 23t-23.5 57zM610 1227q0 32 23.5 55t56.5 23q32 0 55.5 -23t23.5 -55q0 -34 -23.5 -57t-55.5 -23q-33 0 -56.5 23t-23.5 57z" />
<glyph unicode="&#xf7;" d="M85 483v80h900v-80h-900zM456 215q0 33 23.5 56t56.5 23q32 0 55.5 -23t23.5 -56t-23.5 -56t-55.5 -23q-33 0 -56.5 23t-23.5 56zM456 832q0 33 23.5 56t56.5 23q32 0 55.5 -23t23.5 -56t-23.5 -56t-55.5 -23q-33 0 -56.5 23t-23.5 56z" />
<glyph unicode="&#xf8;" horiz-adv-x="1080" d="M55 461q0 202 142.5 344t342.5 142q114 0 210 -46l107 188l70 -37l-110 -190q35 -25 67 -57q141 -142 141 -344q0 -200 -141.5 -342.5t-343.5 -142.5q-114 0 -208 46l-109 -188l-70 33l111 195q-35 25 -67 56q-142 143 -142 343zM139 461q0 -166 117 -283q24 -24 51 -43 l399 693q-76 34 -166 34q-166 0 -283.5 -117.5t-117.5 -283.5zM374 95q76 -34 166 -34q166 0 283.5 117t117.5 283t-117 284q-24 24 -50 42z" />
<glyph unicode="&#xf9;" horiz-adv-x="880" d="M87 327v542h80v-535q0 -110 80 -188q79 -79 197 -79q110 0 189.5 78.5t79.5 188.5v535h80v-542q-3 -147 -99 -243t-249 -96q-163 0 -259 96t-99 243zM246 1237h147l144 -165h-75z" />
<glyph unicode="&#xfa;" horiz-adv-x="880" d="M87 327v542h80v-535q0 -110 80 -188q79 -79 197 -79q110 0 189.5 78.5t79.5 188.5v535h80v-542q-3 -147 -99 -243t-249 -96q-163 0 -259 96t-99 243zM343 1072l144 165h147l-217 -165h-74z" />
<glyph unicode="&#xfb;" horiz-adv-x="880" d="M87 327v542h80v-535q0 -110 80 -188q79 -79 197 -79q110 0 189.5 78.5t79.5 188.5v535h80v-542q-3 -147 -99 -243t-249 -96q-163 0 -259 96t-99 243zM188 1063l202 207h92l211 -207h-92l-165 126l-155 -126h-93z" />
<glyph unicode="&#xfc;" horiz-adv-x="880" d="M87 327v542h80v-535q0 -110 80 -188q79 -79 197 -79q110 0 189.5 78.5t79.5 188.5v535h80v-542q-3 -147 -99 -243t-249 -96q-163 0 -259 96t-99 243zM228 1227q0 32 23.5 55t56.5 23q32 0 55.5 -23t23.5 -55q0 -34 -23.5 -57t-55.5 -23q-33 0 -56.5 23t-23.5 57z M493 1227q0 32 23.5 55t56.5 23q32 0 55.5 -23t23.5 -55q0 -34 -23.5 -57t-55.5 -23q-33 0 -56.5 23t-23.5 57z" />
<glyph unicode="&#xfd;" horiz-adv-x="779" d="M15 868h89l285 -606l286 606h89l-329 -705h-1l-229 -493h-89l229 491zM293 1072l144 165h147l-217 -165h-74z" />
<glyph unicode="&#xfe;" horiz-adv-x="1204" d="M127 -316v1553h80v-487q21 28 46 54q143 141 343 141q202 0 343.5 -141.5t141.5 -343.5q0 -200 -141.5 -342.5t-343.5 -142.5q-200 0 -343 143q-25 25 -46 53v-487h-80zM207 361q25 -104 106 -184q117 -118 283 -118t283.5 117.5t117.5 283.5t-117.5 284t-283.5 118 t-283 -118q-81 -80 -106 -185v-198z" />
<glyph unicode="&#xff;" horiz-adv-x="779" d="M15 868h89l285 -606l286 606h89l-329 -705h-1l-229 -493h-89l229 491zM178 1227q0 32 23.5 55t56.5 23q32 0 55.5 -23t23.5 -55q0 -34 -23.5 -57t-55.5 -23q-33 0 -56.5 23t-23.5 57zM443 1227q0 32 23.5 55t56.5 23q32 0 55.5 -23t23.5 -55q0 -34 -23.5 -57t-55.5 -23 q-33 0 -56.5 23t-23.5 57z" />
<glyph unicode="&#x100;" horiz-adv-x="1116" d="M-1 0l519 1414h82l513 -1414h-84l-226 622h-489l-230 -622h-85zM296 1588v62h521v-62h-521zM343 701h431l-215 593z" />
<glyph unicode="&#x101;" horiz-adv-x="1122" d="M74 460q0 202 142.5 344t342.5 142q202 0 344 -142q27 -28 50 -59v123h80v-868h-80v177q-23 -31 -50 -59q-142 -143 -344 -143q-200 0 -342.5 142.5t-142.5 342.5zM158 460q0 -166 117.5 -283t283.5 -117t284 118q88 88 110 204v157q-22 117 -110 205q-118 118 -284 118 t-283.5 -118t-117.5 -284zM293 1122v62h521v-62h-521z" />
<glyph unicode="&#x102;" horiz-adv-x="1116" d="M-1 0l519 1414h82l513 -1414h-84l-226 622h-489l-230 -622h-85zM343 701h431l-215 593zM349 1748h65q7 -47 41 -80q42 -43 103 -43q59 0 101 43q35 33 41 80h64q-7 -73 -60 -126q-60 -61 -146 -61q-88 0 -148 61q-57 58 -61 126z" />
<glyph unicode="&#x103;" horiz-adv-x="1122" d="M74 460q0 202 142.5 344t342.5 142q202 0 344 -142q27 -28 50 -59v123h80v-868h-80v177q-23 -31 -50 -59q-142 -143 -344 -143q-200 0 -342.5 142.5t-142.5 342.5zM158 460q0 -166 117.5 -283t283.5 -117t284 118q88 88 110 204v157q-22 117 -110 205q-118 118 -284 118 t-283.5 -118t-117.5 -284zM346 1282h65q7 -47 41 -80q42 -43 103 -43q59 0 101 43q35 33 41 80h64q-7 -73 -60 -126q-60 -61 -146 -61q-88 0 -148 61q-57 58 -61 126z" />
<glyph unicode="&#x104;" horiz-adv-x="1116" d="M-1 0l519 1414h82l513 -1414h-59q-54 -18 -79 -40q-29 -25 -31 -62v-6q0 -33 22 -59q24 -28 58 -30q3 -1 6 -1q31 0 66 23l17 -48l-4 -3q-32 -28 -78 -28h-12q-57 4 -96 49q-35 41 -35 93q0 7 1 14q5 61 50 100q36 30 78 32l-214 588h-489l-230 -622h-85zM343 701h431 l-215 593z" />
<glyph unicode="&#x105;" horiz-adv-x="1122" d="M74 460q0 202 142.5 344t342.5 142q202 0 344 -142q27 -28 50 -59v123h80v-868h-59q-54 -18 -79 -40q-29 -25 -31 -62v-6q0 -33 22 -59q24 -28 58 -30q3 -1 6 -1q31 0 66 23l17 -48l-4 -3q-32 -28 -78 -28h-12q-57 4 -96 49q-35 41 -35 93q0 7 1 14q5 61 50 100 q38 32 83 32h11v143q-23 -31 -50 -59q-142 -143 -344 -143q-200 0 -342.5 142.5t-142.5 342.5zM158 460q0 -166 117.5 -283t283.5 -117t284 118q88 88 110 204v157q-22 117 -110 205q-118 118 -284 118t-283.5 -118t-117.5 -284z" />
<glyph unicode="&#x106;" horiz-adv-x="1347" d="M74 707q0 299 211.5 511.5t512.5 212.5q280 0 487 -189l-61 -54q-182 161 -426 161q-266 0 -454.5 -188t-188.5 -454q0 -267 188.5 -455t454.5 -188q244 0 426 161l61 -54q-207 -188 -487 -188q-301 0 -512.5 211.5t-211.5 512.5zM683 1618l144 165h147l-217 -165h-74z " />
<glyph unicode="&#x107;" horiz-adv-x="985" d="M52 461q0 201 142.5 343t342.5 142q202 0 344 -142q29 -29 52 -60l-84 -31q-13 16 -28 32q-118 117 -284 117q-165 0 -282.5 -117.5t-117.5 -283.5t117.5 -283.5t282.5 -117.5q166 0 284 118q15 15 28 31l84 -31q-23 -31 -52 -60q-142 -143 -344 -143 q-200 0 -342.5 142.5t-142.5 343.5zM446 1072l144 165h147l-217 -165h-74z" />
<glyph unicode="&#x108;" horiz-adv-x="1347" d="M74 707q0 299 211.5 511.5t512.5 212.5q280 0 487 -189l-61 -54q-182 161 -426 161q-266 0 -454.5 -188t-188.5 -454q0 -267 188.5 -455t454.5 -188q244 0 426 161l61 -54q-207 -188 -487 -188q-301 0 -512.5 211.5t-211.5 512.5zM527 1609l202 207h92l211 -207h-92 l-165 126l-155 -126h-93z" />
<glyph unicode="&#x109;" horiz-adv-x="985" d="M52 461q0 201 142.5 343t342.5 142q202 0 344 -142q29 -29 52 -60l-84 -31q-13 16 -28 32q-118 117 -284 117q-165 0 -282.5 -117.5t-117.5 -283.5t117.5 -283.5t282.5 -117.5q166 0 284 118q15 15 28 31l84 -31q-23 -31 -52 -60q-142 -143 -344 -143 q-200 0 -342.5 142.5t-142.5 343.5zM290 1063l202 207h92l211 -207h-92l-165 126l-155 -126h-93z" />
<glyph unicode="&#x10a;" horiz-adv-x="1347" d="M74 707q0 299 211.5 511.5t512.5 212.5q280 0 487 -189l-61 -54q-182 161 -426 161q-266 0 -454.5 -188t-188.5 -454q0 -267 188.5 -455t454.5 -188q244 0 426 161l61 -54q-207 -188 -487 -188q-301 0 -512.5 211.5t-211.5 512.5zM712 1760q0 28 20 47.5t48 19.5 q27 0 47 -19.5t20 -47.5t-20 -47.5t-47 -19.5q-28 0 -48 19.5t-20 47.5z" />
<glyph unicode="&#x10b;" horiz-adv-x="985" d="M52 461q0 201 142.5 343t342.5 142q202 0 344 -142q29 -29 52 -60l-84 -31q-13 16 -28 32q-118 117 -284 117q-165 0 -282.5 -117.5t-117.5 -283.5t117.5 -283.5t282.5 -117.5q166 0 284 118q15 15 28 31l84 -31q-23 -31 -52 -60q-142 -143 -344 -143 q-200 0 -342.5 142.5t-142.5 343.5zM475 1214q0 28 20 47.5t48 19.5q27 0 47 -19.5t20 -47.5t-20 -47.5t-47 -19.5q-28 0 -48 19.5t-20 47.5z" />
<glyph unicode="&#x10c;" horiz-adv-x="1347" d="M74 707q0 299 211.5 511.5t512.5 212.5q280 0 487 -189l-61 -54q-182 161 -426 161q-266 0 -454.5 -188t-188.5 -454q0 -267 188.5 -455t454.5 -188q244 0 426 161l61 -54q-207 -188 -487 -188q-301 0 -512.5 211.5t-211.5 512.5zM527 1816h93l155 -126l165 126h92 l-211 -207h-92z" />
<glyph unicode="&#x10d;" horiz-adv-x="985" d="M52 461q0 201 142.5 343t342.5 142q202 0 344 -142q29 -29 52 -60l-84 -31q-13 16 -28 32q-118 117 -284 117q-165 0 -282.5 -117.5t-117.5 -283.5t117.5 -283.5t282.5 -117.5q166 0 284 118q15 15 28 31l84 -31q-23 -31 -52 -60q-142 -143 -344 -143 q-200 0 -342.5 142.5t-142.5 343.5zM290 1270h93l155 -126l165 126h92l-211 -207h-92z" />
<glyph unicode="&#x10e;" horiz-adv-x="1189" d="M112 0v1414h262q349 -2 541 -195q212 -213 212 -512q0 -301 -212 -513q-192 -192 -541 -194h-262zM192 82h181q305 0 481 170q188 188 188 455q0 266 -188 455q-176 169 -481 169h-181v-1249zM367 1816h93l155 -126l165 126h92l-211 -207h-92z" />
<glyph unicode="&#x10f;" horiz-adv-x="1269" d="M74 460q0 202 142.5 344t342.5 142q202 0 344 -142q27 -28 50 -59v669h80v-1414h-80v177q-23 -31 -50 -59q-142 -143 -344 -143q-200 0 -342.5 142.5t-142.5 342.5zM158 460q0 -166 117.5 -283t283.5 -117t284 118q88 88 110 204v157q-22 117 -110 205q-118 118 -284 118 t-283.5 -118t-117.5 -284zM1110 1345q0 33 23.5 55.5t56.5 22.5q32 0 55.5 -22.5t23.5 -55.5q0 -19 -6 -35l-87 -175h-57l50 133q-20 4 -35 20q-24 23 -24 57z" />
<glyph unicode="&#x110;" horiz-adv-x="1261" d="M20 667v80h128v667h262q349 -2 541 -195q212 -213 212 -512q0 -301 -212 -513q-192 -192 -541 -194h-262v667h-128zM228 82h181q305 0 481 170q188 188 188 455q0 266 -188 455q-176 169 -481 169h-181v-584h492v-80h-492v-585z" />
<glyph unicode="&#x111;" horiz-adv-x="1145" d="M74 460q0 202 142.5 344t342.5 142q202 0 344 -142q27 -28 50 -59v389h-306v79h306v201h80v-201h114v-79h-114v-1134h-80v177q-23 -31 -50 -59q-142 -143 -344 -143q-200 0 -342.5 142.5t-142.5 342.5zM158 460q0 -166 117.5 -283t283.5 -117t284 118q88 88 110 204v157 q-22 117 -110 205q-118 118 -284 118t-283.5 -118t-117.5 -284z" />
<glyph unicode="&#x112;" horiz-adv-x="931" d="M112 0v1414h707v-80h-627v-587h627v-80h-627v-587h627v-80h-707zM205 1668v62h521v-62h-521z" />
<glyph unicode="&#x113;" horiz-adv-x="1042" d="M52 460q0 202 142.5 344t342.5 142q202 0 344 -142q125 -126 125 -299h-867q-3 -21 -3 -45q0 -166 117.5 -283t283.5 -117t284 118q20 20 38 42l85 -30q-15 -25 -63 -72q-142 -143 -344 -143q-200 0 -342.5 142.5t-142.5 342.5zM154 586h762q-28 91 -95 158 q-118 118 -284 118t-284 -118q-70 -71 -99 -158zM269 1122v62h521v-62h-521z" />
<glyph unicode="&#x114;" horiz-adv-x="931" d="M112 0v1414h707v-80h-627v-587h627v-80h-627v-587h627v-80h-707zM258 1828h65q7 -47 41 -80q42 -43 103 -43q59 0 101 43q35 33 41 80h64q-7 -73 -60 -126q-60 -61 -146 -61q-88 0 -148 61q-57 58 -61 126z" />
<glyph unicode="&#x115;" horiz-adv-x="1042" d="M52 460q0 202 142.5 344t342.5 142q202 0 344 -142q125 -126 125 -299h-867q-3 -21 -3 -45q0 -166 117.5 -283t283.5 -117t284 118q20 20 38 42l85 -30q-15 -25 -63 -72q-142 -143 -344 -143q-200 0 -342.5 142.5t-142.5 342.5zM154 586h762q-28 91 -95 158 q-118 118 -284 118t-284 -118q-70 -71 -99 -158zM322 1282h65q7 -47 41 -80q42 -43 103 -43q59 0 101 43q35 33 41 80h64q-7 -73 -60 -126q-60 -61 -146 -61q-88 0 -148 61q-57 58 -61 126z" />
<glyph unicode="&#x116;" horiz-adv-x="931" d="M112 0v1414h707v-80h-627v-587h627v-80h-627v-587h627v-80h-707zM398 1760q0 28 20 47.5t48 19.5q27 0 47 -19.5t20 -47.5t-20 -47.5t-47 -19.5q-28 0 -48 19.5t-20 47.5z" />
<glyph unicode="&#x117;" horiz-adv-x="1042" d="M52 460q0 202 142.5 344t342.5 142q202 0 344 -142q125 -126 125 -299h-867q-3 -21 -3 -45q0 -166 117.5 -283t283.5 -117t284 118q20 20 38 42l85 -30q-15 -25 -63 -72q-142 -143 -344 -143q-200 0 -342.5 142.5t-142.5 342.5zM154 586h762q-28 91 -95 158 q-118 118 -284 118t-284 -118q-70 -71 -99 -158zM462 1214q0 28 20 47.5t48 19.5q27 0 47 -19.5t20 -47.5t-20 -47.5t-47 -19.5q-28 0 -48 19.5t-20 47.5z" />
<glyph unicode="&#x118;" horiz-adv-x="931" d="M112 0v1414h707v-80h-627v-587h627v-80h-627v-587h627v-80h-59q-54 -18 -79 -40q-29 -25 -31 -62v-6q0 -33 22 -59q24 -28 58 -30q3 -1 6 -1q31 0 66 23l17 -48l-4 -3q-32 -28 -78 -28h-12q-57 4 -96 49q-35 41 -35 93q0 7 1 14q5 59 48 98h-531z" />
<glyph unicode="&#x119;" horiz-adv-x="1038" d="M52 460q0 202 142.5 344t342.5 142q202 0 344 -142q125 -126 125 -299h-867q-3 -21 -3 -45q0 -166 117.5 -283t283.5 -117t284 118q20 20 38 42l85 -30q-15 -25 -63 -72q-20 -20 -41 -37q-101 -90 -103 -127v-6q0 -33 22 -59q24 -28 58 -30q3 -1 6 -1q31 0 66 23l17 -48 l-4 -3q-32 -28 -78 -28h-12q-57 4 -96 49q-35 41 -35 93q0 7 1 14q2 22 9 40q-72 -23 -154 -23q-200 0 -342.5 142.5t-142.5 342.5zM154 586h762q-28 91 -95 158q-118 118 -284 118t-284 -118q-70 -71 -99 -158z" />
<glyph unicode="&#x11a;" horiz-adv-x="931" d="M112 0v1414h707v-80h-627v-587h627v-80h-627v-587h627v-80h-707zM213 1816h93l155 -126l165 126h92l-211 -207h-92z" />
<glyph unicode="&#x11b;" horiz-adv-x="1042" d="M52 460q0 202 142.5 344t342.5 142q202 0 344 -142q125 -126 125 -299h-867q-3 -21 -3 -45q0 -166 117.5 -283t283.5 -117t284 118q20 20 38 42l85 -30q-15 -25 -63 -72q-142 -143 -344 -143q-200 0 -342.5 142.5t-142.5 342.5zM154 586h762q-28 91 -95 158 q-118 118 -284 118t-284 -118q-70 -71 -99 -158zM277 1270h93l155 -126l165 126h92l-211 -207h-92z" />
<glyph unicode="&#x11c;" horiz-adv-x="1359" d="M74 707q0 299 211.5 511.5t512.5 212.5q280 0 487 -189l-61 -54q-182 161 -426 161q-266 0 -454.5 -188t-188.5 -454q0 -267 188.5 -455t454.5 -188q228 0 402 140v431h79v-459q-201 -193 -481 -193q-301 0 -512.5 211.5t-211.5 512.5zM527 1609l202 207h92l211 -207h-92 l-165 126l-155 -126h-93z" />
<glyph unicode="&#x11d;" horiz-adv-x="1083" d="M52 460q0 202 142.5 343.5t342.5 141.5q202 0 344 -141q27 -28 50 -59v123h80v-674q0 -196 -139 -334q-142 -143 -343 -143t-344 143q-29 29 -52 60l84 31q13 -16 29 -31q117 -118 283 -118q165 0 283 118q107 107 117 252q-23 -28 -48 -54q-142 -143 -344 -143 q-200 0 -342.5 142.5t-142.5 342.5zM136 460q0 -166 117.5 -283.5t283.5 -117.5t284 118q85 85 109 199v167q-23 114 -109 201q-118 118 -284 118t-283.5 -118t-117.5 -284zM279 1063l202 207h92l211 -207h-92l-165 126l-155 -126h-93z" />
<glyph unicode="&#x11e;" horiz-adv-x="1359" d="M74 707q0 299 211.5 511.5t512.5 212.5q280 0 487 -189l-61 -54q-182 161 -426 161q-266 0 -454.5 -188t-188.5 -454q0 -267 188.5 -455t454.5 -188q228 0 402 140v431h79v-459q-201 -193 -481 -193q-301 0 -512.5 211.5t-211.5 512.5zM572 1828h65q7 -47 41 -80 q42 -43 103 -43q59 0 101 43q35 33 41 80h64q-7 -73 -60 -126q-60 -61 -146 -61q-88 0 -148 61q-57 58 -61 126z" />
<glyph unicode="&#x11f;" horiz-adv-x="1083" d="M52 460q0 202 142.5 343.5t342.5 141.5q202 0 344 -141q27 -28 50 -59v123h80v-674q0 -196 -139 -334q-142 -143 -343 -143t-344 143q-29 29 -52 60l84 31q13 -16 29 -31q117 -118 283 -118q165 0 283 118q107 107 117 252q-23 -28 -48 -54q-142 -143 -344 -143 q-200 0 -342.5 142.5t-142.5 342.5zM136 460q0 -166 117.5 -283.5t283.5 -117.5t284 118q85 85 109 199v167q-23 114 -109 201q-118 118 -284 118t-283.5 -118t-117.5 -284zM324 1282h65q7 -47 41 -80q42 -43 103 -43q59 0 101 43q35 33 41 80h64q-7 -73 -60 -126 q-60 -61 -146 -61q-88 0 -148 61q-57 58 -61 126z" />
<glyph unicode="&#x120;" horiz-adv-x="1359" d="M74 707q0 299 211.5 511.5t512.5 212.5q280 0 487 -189l-61 -54q-182 161 -426 161q-266 0 -454.5 -188t-188.5 -454q0 -267 188.5 -455t454.5 -188q228 0 402 140v431h79v-459q-201 -193 -481 -193q-301 0 -512.5 211.5t-211.5 512.5zM712 1760q0 28 20 47.5t48 19.5 q27 0 47 -19.5t20 -47.5t-20 -47.5t-47 -19.5q-28 0 -48 19.5t-20 47.5z" />
<glyph unicode="&#x121;" horiz-adv-x="1083" d="M52 460q0 202 142.5 343.5t342.5 141.5q202 0 344 -141q27 -28 50 -59v123h80v-674q0 -196 -139 -334q-142 -143 -343 -143t-344 143q-29 29 -52 60l84 31q13 -16 29 -31q117 -118 283 -118q165 0 283 118q107 107 117 252q-23 -28 -48 -54q-142 -143 -344 -143 q-200 0 -342.5 142.5t-142.5 342.5zM136 460q0 -166 117.5 -283.5t283.5 -117.5t284 118q85 85 109 199v167q-23 114 -109 201q-118 118 -284 118t-283.5 -118t-117.5 -284zM464 1214q0 28 20 47.5t48 19.5q27 0 47 -19.5t20 -47.5t-20 -47.5t-47 -19.5q-28 0 -48 19.5 t-20 47.5z" />
<glyph unicode="&#x122;" horiz-adv-x="1359" d="M74 707q0 299 211.5 511.5t512.5 212.5q280 0 487 -189l-61 -54q-182 161 -426 161q-266 0 -454.5 -188t-188.5 -454q0 -267 188.5 -455t454.5 -188q228 0 402 140v431h79v-459q-201 -193 -481 -193q-17 0 -33 1l-17 -20q32 6 58 6q51 0 80 -23q40 -31 40 -74v-9 q-5 -49 -61 -90q-49 -28 -104 -28q-31 0 -65 9l17 51q28 -11 55 -11q31 0 60 15q25 18 30 43q1 5 1 11q0 18 -14 32q-18 17 -49 18h-4q-29 0 -47 -6q-19 -7 -57 -33l-35 34l46 80q-238 30 -413 206q-212 211 -212 512z" />
<glyph unicode="&#x123;" horiz-adv-x="1083" d="M52 460q0 202 142.5 343.5t342.5 141.5q202 0 344 -141q27 -28 50 -59v123h80v-674q0 -196 -139 -334q-142 -143 -343 -143t-344 143q-29 29 -52 60l84 31q13 -16 29 -31q117 -118 283 -118q165 0 283 118q107 107 117 252q-23 -28 -48 -54q-142 -143 -344 -143 q-200 0 -342.5 142.5t-142.5 342.5zM136 460q0 -166 117.5 -283.5t283.5 -117.5t284 118q85 85 109 199v167q-23 114 -109 201q-118 118 -284 118t-283.5 -118t-117.5 -284zM445 1119q0 19 6 35l87 175h57l-50 -133q20 -4 35 -20q24 -23 24 -57q0 -33 -23.5 -55.5 t-56.5 -22.5q-32 0 -55.5 22.5t-23.5 55.5z" />
<glyph unicode="&#x124;" horiz-adv-x="1072" d="M94 0v1414h80v-667h724v667h80v-1414h-80v667h-724v-667h-80zM284 1609l202 207h92l211 -207h-92l-165 126l-155 -126h-93z" />
<glyph unicode="&#x125;" horiz-adv-x="859" d="M94 0v1414h80v-591q100 97 242 97q153 0 249.5 -96.5t99.5 -242.5v-581h-80v573q0 111 -80 189t-189 78q-110 0 -189 -77q-36 -35 -53 -73v-690h-80zM177 1559l202 207h92l211 -207h-92l-165 126l-155 -126h-93z" />
<glyph unicode="&#x126;" horiz-adv-x="1072" d="M11 1135v79h83v200h80v-200h724v200h80v-200h83v-79h-83v-1135h-80v667h-724v-667h-80v1135h-83zM174 747h724v388h-724v-388z" />
<glyph unicode="&#x127;" horiz-adv-x="839" d="M-16 1134v79h100v201h80v-201h194v-79h-194v-311q100 97 242 97q153 0 249.5 -96.5t99.5 -242.5v-581h-80v573q0 111 -80 189t-189 78q-110 0 -189 -77q-36 -35 -53 -73v-690h-80v1134h-100z" />
<glyph unicode="&#x128;" horiz-adv-x="324" d="M-29 1660q1 37 9 60q18 55 63 74q11 5 25 5q41 0 104 -46q59 -43 82 -43h4q18 7 26 32q4 14 4 49l66 -13q-2 -37 -10 -61q-18 -55 -62 -74q-12 -4 -25 -4q-41 0 -105 45q-59 44 -82 44q-3 0 -4 -1q-17 -6 -25 -32q-5 -14 -5 -49zM123 0v1414h80v-1414h-80z" />
<glyph unicode="&#x129;" horiz-adv-x="369" d="M-7 1114q1 37 9 60q18 55 63 74q11 5 25 5q41 0 104 -46q59 -43 82 -43h4q18 7 26 32q4 14 4 49l66 -13q-2 -37 -10 -61q-18 -55 -62 -74q-12 -4 -25 -4q-41 0 -105 45q-59 44 -82 44q-3 0 -4 -1q-17 -6 -25 -32q-5 -14 -5 -49zM145 0v868h79v-868h-79z" />
<glyph unicode="&#x12a;" horiz-adv-x="324" d="M-98 1668v62h521v-62h-521zM123 0v1414h80v-1414h-80z" />
<glyph unicode="&#x12b;" horiz-adv-x="369" d="M-76 1122v62h521v-62h-521zM145 0v868h79v-868h-79z" />
<glyph unicode="&#x12c;" horiz-adv-x="324" d="M-45 1828h65q7 -47 41 -80q42 -43 103 -43q59 0 101 43q35 33 41 80h64q-7 -73 -60 -126q-60 -61 -146 -61q-88 0 -148 61q-57 58 -61 126zM123 0v1414h80v-1414h-80z" />
<glyph unicode="&#x12d;" horiz-adv-x="369" d="M-23 1282h65q7 -47 41 -80q42 -43 103 -43q59 0 101 43q35 33 41 80h64q-7 -73 -60 -126q-60 -61 -146 -61q-88 0 -148 61q-57 58 -61 126zM145 0v868h79v-868h-79z" />
<glyph unicode="&#x12e;" horiz-adv-x="324" d="M-27 -112q0 7 1 14q5 61 50 100q38 32 83 32h11v1380h80v-1414h-59q-54 -18 -79 -40q-29 -25 -31 -62v-6q0 -33 22 -59q24 -28 58 -30q3 -1 6 -1q31 0 66 23l17 -48l-4 -3q-32 -28 -78 -28h-12q-57 4 -96 49q-35 41 -35 93z" />
<glyph unicode="&#x12f;" horiz-adv-x="297" d="M-1 -112q0 7 1 14q5 61 50 100q26 22 55 29v837h79v-868h-19q-54 -18 -79 -40q-29 -25 -31 -62v-6q0 -33 22 -59q24 -28 58 -30q3 -1 6 -1q31 0 66 23l17 -48l-4 -3q-32 -28 -78 -28h-12q-57 4 -96 49q-35 41 -35 93zM65 1097q0 32 23.5 55t56.5 23q32 0 55.5 -23 t23.5 -55q0 -34 -23.5 -57t-55.5 -23q-33 0 -56.5 23t-23.5 57z" />
<glyph unicode="&#x130;" horiz-adv-x="324" d="M95 1760q0 28 20 47.5t48 19.5q27 0 47 -19.5t20 -47.5t-20 -47.5t-47 -19.5q-28 0 -48 19.5t-20 47.5zM123 0v1414h80v-1414h-80z" />
<glyph unicode="&#x131;" horiz-adv-x="369" d="M145 0v868h79v-868h-79z" />
<glyph unicode="&#x132;" horiz-adv-x="630" d="M122 0v1414h80v-1414h-80zM263 -202q73 0 124 50q49 49 49 135v1431h80v-1441q0 -108 -73 -181.5t-180 -73.5v80z" />
<glyph unicode="&#x133;" horiz-adv-x="601" d="M79 1097q0 32 23.5 55t56.5 23q32 0 55.5 -23t23.5 -55q0 -34 -23.5 -57t-55.5 -23q-33 0 -56.5 23t-23.5 57zM119 0v868h79v-868h-79zM306 -122q107 12 107 120v870h79v-868q0 -186 -186 -201v79zM373 1097q0 32 23.5 55t56.5 23q32 0 55.5 -23t23.5 -55 q0 -34 -23.5 -57t-55.5 -23q-33 0 -56.5 23t-23.5 57z" />
<glyph unicode="&#x134;" horiz-adv-x="306" d="M-86 1609l202 207h92l211 -207h-92l-165 126l-155 -126h-93zM-61 -202q73 0 124 50q49 49 49 135v1431h80v-1441q0 -108 -73 -181.5t-180 -73.5v80z" />
<glyph unicode="&#x135;" horiz-adv-x="265" d="M-120 1270h93l155 -126l165 126h92l-211 -207h-92zM-11 -122q107 12 107 120v870h79v-868q0 -186 -186 -201v79z" />
<glyph unicode="&#x138;" horiz-adv-x="717" d="M55 0v868h80v-398l341 398h102l-214 -265l341 -603h-98l-295 539l-177 -196v-343h-80z" />
<glyph unicode="&#x139;" horiz-adv-x="783" d="M112 0v1414h80v-1334h539v-80h-619zM325 1618l144 165h147l-217 -165h-74z" />
<glyph unicode="&#x13a;" horiz-adv-x="300" d="M5 1601l144 165h147l-217 -165h-74zM111 0v1414h80v-1414h-80z" />
<glyph unicode="&#x13d;" horiz-adv-x="783" d="M112 0v1414h80v-1334h539v-80h-619zM530 1345q0 33 23.5 55.5t56.5 22.5q32 0 55.5 -22.5t23.5 -55.5q0 -19 -6 -35l-87 -175h-57l50 133q-20 4 -35 20q-24 23 -24 57z" />
<glyph unicode="&#x13e;" horiz-adv-x="439" d="M112 0v1414h80v-1414h-80zM280 1345q0 33 23.5 55.5t56.5 22.5q32 0 55.5 -22.5t23.5 -55.5q0 -19 -6 -35l-87 -175h-57l50 133q-20 4 -35 20q-24 23 -24 57z" />
<glyph unicode="&#x13f;" horiz-adv-x="783" d="M112 0v1414h80v-1334h539v-80h-619zM556 707q0 28 20 47.5t48 19.5q27 0 47 -19.5t20 -47.5t-20 -47.5t-47 -19.5q-28 0 -48 19.5t-20 47.5z" />
<glyph unicode="&#x140;" horiz-adv-x="440" d="M99 0v1414h80v-1414h-80zM279 707q0 28 20 47.5t48 19.5q27 0 47 -19.5t20 -47.5t-20 -47.5t-47 -19.5q-28 0 -48 19.5t-20 47.5z" />
<glyph unicode="&#x141;" horiz-adv-x="871" d="M0 372v94l202 164v784h80v-718l402 327v-94l-402 -327v-522h539v-80h-619v536z" />
<glyph unicode="&#x142;" horiz-adv-x="376" d="M0 497v94l148 121v702h80v-637l148 121v-94l-148 -121v-683h-80v618z" />
<glyph unicode="&#x143;" horiz-adv-x="1339" d="M109 0v1414h101l940 -1317v1317h80v-1414h-123l-918 1286v-1286h-80zM573 1538l144 165h147l-217 -165h-74z" />
<glyph unicode="&#x144;" horiz-adv-x="879" d="M99 0v868h80v-56q108 108 252 108q154 0 250.5 -96.5t98.5 -242.5v-581h-79v573q0 111 -80 189t-190 78q-109 0 -189 -77q-43 -43 -63 -89v-674h-80zM343 1072l144 165h147l-217 -165h-74z" />
<glyph unicode="&#x147;" horiz-adv-x="1339" d="M109 0v1414h101l940 -1317v1317h80v-1414h-123l-918 1286v-1286h-80zM417 1736h93l155 -126l165 126h92l-211 -207h-92z" />
<glyph unicode="&#x148;" horiz-adv-x="879" d="M99 0v868h80v-56q108 108 252 108q154 0 250.5 -96.5t98.5 -242.5v-581h-79v573q0 111 -80 189t-190 78q-109 0 -189 -77q-43 -43 -63 -89v-674h-80zM187 1270h93l155 -126l165 126h92l-211 -207h-92z" />
<glyph unicode="&#x14a;" horiz-adv-x="1163" d="M109 0v1436l865 -1213v1191h80v-1464q0 -108 -73 -181.5t-180 -73.5v80q73 0 124 50q49 49 49 135v124l-785 1102v-1186h-80z" />
<glyph unicode="&#x14b;" horiz-adv-x="885" d="M102 0v868h80v-56q108 108 252 108q154 0 250.5 -96.5t98.5 -242.5v-460h1v-171q0 -108 -73 -181.5t-180 -73.5v80q73 0 124 50q49 49 49 135v613q0 111 -80 189t-190 78q-109 0 -189 -77q-43 -43 -63 -89v-674h-80z" />
<glyph unicode="&#x14c;" horiz-adv-x="1575" d="M62 709q0 300 212.5 512.5t512.5 212.5q301 0 513.5 -212.5t212.5 -512.5q0 -301 -212.5 -513.5t-513.5 -212.5q-300 0 -512.5 212.5t-212.5 513.5zM143 709q0 -267 189 -456t455 -189q267 0 456 189t189 456q0 266 -189 455t-456 189q-266 0 -455 -189t-189 -455z M527 1668v62h521v-62h-521z" />
<glyph unicode="&#x14d;" horiz-adv-x="1114" d="M72 460q0 202 142.5 344t342.5 142q202 0 343.5 -142t141.5 -344q0 -200 -141.5 -342.5t-343.5 -142.5q-200 0 -342.5 142.5t-142.5 342.5zM156 460q0 -166 117.5 -283t283.5 -117t283.5 117t117.5 283t-117.5 284t-283.5 118t-283.5 -118t-117.5 -284zM297 1122v62h521 v-62h-521z" />
<glyph unicode="&#x14e;" horiz-adv-x="1575" d="M62 709q0 300 212.5 512.5t512.5 212.5q301 0 513.5 -212.5t212.5 -512.5q0 -301 -212.5 -513.5t-513.5 -212.5q-300 0 -512.5 212.5t-212.5 513.5zM143 709q0 -267 189 -456t455 -189q267 0 456 189t189 456q0 266 -189 455t-456 189q-266 0 -455 -189t-189 -455z M580 1828h65q7 -47 41 -80q42 -43 103 -43q59 0 101 43q35 33 41 80h64q-7 -73 -60 -126q-60 -61 -146 -61q-88 0 -148 61q-57 58 -61 126z" />
<glyph unicode="&#x14f;" horiz-adv-x="1114" d="M72 460q0 202 142.5 344t342.5 142q202 0 343.5 -142t141.5 -344q0 -200 -141.5 -342.5t-343.5 -142.5q-200 0 -342.5 142.5t-142.5 342.5zM156 460q0 -166 117.5 -283t283.5 -117t283.5 117t117.5 283t-117.5 284t-283.5 118t-283.5 -118t-117.5 -284zM350 1282h65 q7 -47 41 -80q42 -43 103 -43q59 0 101 43q35 33 41 80h64q-7 -73 -60 -126q-60 -61 -146 -61q-88 0 -148 61q-57 58 -61 126z" />
<glyph unicode="&#x150;" horiz-adv-x="1575" d="M62 709q0 300 212.5 512.5t512.5 212.5q301 0 513.5 -212.5t212.5 -512.5q0 -301 -212.5 -513.5t-513.5 -212.5q-300 0 -512.5 212.5t-212.5 513.5zM143 709q0 -267 189 -456t455 -189q267 0 456 189t189 456q0 266 -189 455t-456 189q-266 0 -455 -189t-189 -455z M641 1601l144 165h147l-217 -165h-74zM843 1601l144 165h147l-216 -165h-75z" />
<glyph unicode="&#x151;" horiz-adv-x="1114" d="M72 460q0 202 142.5 344t342.5 142q202 0 343.5 -142t141.5 -344q0 -200 -141.5 -342.5t-343.5 -142.5q-200 0 -342.5 142.5t-142.5 342.5zM156 460q0 -166 117.5 -283t283.5 -117t283.5 117t117.5 283t-117.5 284t-283.5 118t-283.5 -118t-117.5 -284zM411 1055l144 165 h147l-217 -165h-74zM613 1055l144 165h147l-216 -165h-75z" />
<glyph unicode="&#x152;" horiz-adv-x="2014" d="M88 709q0 300 212.5 512.5t512.5 212.5q122 0 229 -20h884v-80h-742q76 -46 143 -112q199 -200 211 -475h388v-80h-388q-14 -274 -211 -471q-70 -70 -149 -116h748v-80h-884q-107 -17 -229 -17q-300 0 -512.5 212.5t-212.5 513.5zM169 709q0 -267 189 -456t455 -189 q123 0 229 39q41 16 80 37q78 44 147 113q174 174 188 414q1 20 1 42q0 19 -1 38q-13 242 -188 418q-69 68 -147 111q-39 21 -80 37q-106 40 -229 40q-266 0 -455 -189t-189 -455z" />
<glyph unicode="&#x153;" horiz-adv-x="1826" d="M66 460q0 202 142.5 344t342.5 142q202 0 344 -142q19 -20 37 -41q17 21 37 41q142 142 343 142t344 -142q125 -126 130 -299l-752 1q2 -23 2 -46q0 -125 -55 -228q21 -28 47 -54q118 -118 284 -118t284 118q20 20 38 42l84 -30q-15 -25 -62 -72q-143 -143 -344 -143 t-343 143q-20 20 -37 41q-18 -21 -37 -41q-142 -143 -344 -143q-200 0 -342.5 142.5t-142.5 342.5zM150 460q0 -166 117.5 -283t283.5 -117t283.5 117t117.5 283t-117.5 284t-283.5 118t-283.5 -118t-117.5 -284zM981 688q26 -48 40 -102h670q-28 91 -95 158 q-118 118 -284 118t-284 -118q-26 -27 -47 -56z" />
<glyph unicode="&#x154;" horiz-adv-x="959" d="M112 0v1414h371q162 -22 275 -135q135 -136 135 -326q0 -192 -135 -327q-94 -94 -215 -123l326 -503h-98l-315 491q-12 -1 -24 -1h-240v-490h-80zM192 571h240q157 0 269 111.5t112 270.5q0 158 -112 269t-269 111h-240v-762zM406 1618l144 165h147l-217 -165h-74z" />
<glyph unicode="&#x155;" horiz-adv-x="406" d="M77 0v868h80v-158q24 35 57 68q73 73 148 97l44 -77q-65 -13 -132 -81q-113 -112 -117 -269v-448h-80zM145 1072l144 165h147l-217 -165h-74z" />
<glyph unicode="&#x158;" horiz-adv-x="959" d="M112 0v1414h371q162 -22 275 -135q135 -136 135 -326q0 -192 -135 -327q-94 -94 -215 -123l326 -503h-98l-315 491q-12 -1 -24 -1h-240v-490h-80zM192 571h240q157 0 269 111.5t112 270.5q0 158 -112 269t-269 111h-240v-762zM250 1816h93l155 -126l165 126h92l-211 -207 h-92z" />
<glyph unicode="&#x159;" horiz-adv-x="406" d="M-11 1270h93l155 -126l165 126h92l-211 -207h-92zM77 0v868h80v-158q24 35 57 68q73 73 148 97l44 -77q-65 -13 -132 -81q-113 -112 -117 -269v-448h-80z" />
<glyph unicode="&#x15a;" horiz-adv-x="942" d="M55 335l75 27q12 -115 98 -200q100 -100 241 -100t241 100t100 241q0 140 -100 240q-88 88 -215 140q-151 50 -238.5 137.5t-87.5 212.5q0 122 87.5 210t212.5 88q123 0 212 -88q48 -47 67 -105l-72 -28q-16 43 -52 79q-64 64 -155 64t-155.5 -64t-64.5 -156 q0 -91 64 -156q60 -59 166 -108q170 -55 286 -171q122 -122 122 -295q0 -174 -122.5 -297t-295.5 -123q-174 0 -296 124q-99 98 -118 228zM374 1618l144 165h147l-217 -165h-74z" />
<glyph unicode="&#x15b;" horiz-adv-x="644" d="M55 240l79 20q0 -77 52.5 -129.5t125.5 -52.5t126 52.5t53 127.5q0 73 -53 125q-28 28 -114 83q-101 55 -140 94q-61 61 -61 147t61 147.5t147 61.5t143 -57q55 -55 55 -126v-4l-69 -28q-9 67 -42 101t-87 34q-53 0 -91 -38t-38 -91t38 -91q22 -23 93 -68 q113 -61 161 -109q75 -76 75 -181q0 -108 -75 -183.5t-182 -75.5t-182 75.5t-75 165.5zM215 1072l144 165h147l-217 -165h-74z" />
<glyph unicode="&#x15c;" horiz-adv-x="942" d="M55 335l75 27q12 -115 98 -200q100 -100 241 -100t241 100t100 241q0 140 -100 240q-88 88 -215 140q-151 50 -238.5 137.5t-87.5 212.5q0 122 87.5 210t212.5 88q123 0 212 -88q48 -47 67 -105l-72 -28q-16 43 -52 79q-64 64 -155 64t-155.5 -64t-64.5 -156 q0 -91 64 -156q60 -59 166 -108q170 -55 286 -171q122 -122 122 -295q0 -174 -122.5 -297t-295.5 -123q-174 0 -296 124q-99 98 -118 228zM219 1609l202 207h92l211 -207h-92l-165 126l-155 -126h-93z" />
<glyph unicode="&#x15d;" horiz-adv-x="644" d="M55 240l79 20q0 -77 52.5 -129.5t125.5 -52.5t126 52.5t53 127.5q0 73 -53 125q-28 28 -114 83q-101 55 -140 94q-61 61 -61 147t61 147.5t147 61.5t143 -57q55 -55 55 -126v-4l-69 -28q-9 67 -42 101t-87 34q-53 0 -91 -38t-38 -91t38 -91q22 -23 93 -68 q113 -61 161 -109q75 -76 75 -181q0 -108 -75 -183.5t-182 -75.5t-182 75.5t-75 165.5zM60 1063l202 207h92l211 -207h-92l-165 126l-155 -126h-93z" />
<glyph unicode="&#x15e;" horiz-adv-x="942" d="M55 335l75 27q12 -115 98 -200q100 -100 241 -100t241 100t100 241q0 140 -100 240q-88 88 -215 140q-151 50 -238.5 137.5t-87.5 212.5q0 122 87.5 210t212.5 88q123 0 212 -88q48 -47 67 -105l-72 -28q-16 43 -52 79q-64 64 -155 64t-155.5 -64t-64.5 -156 q0 -91 64 -156q60 -59 166 -108q170 -55 286 -171q122 -122 122 -295q0 -174 -122.5 -297t-295.5 -123h-5l-34 -39q32 6 58 6q51 0 80 -23q40 -31 40 -74v-9q-5 -49 -61 -90q-49 -28 -104 -28q-31 0 -65 9l17 51q28 -11 55 -11q31 0 60 15q25 18 30 43q1 5 1 11q0 18 -14 32 q-18 17 -49 18h-4q-29 0 -47 -6q-19 -7 -57 -33l-35 34l59 100q-126 22 -221 118q-99 98 -118 228z" />
<glyph unicode="&#x15f;" horiz-adv-x="644" d="M55 240l79 20q0 -77 52.5 -129.5t125.5 -52.5t126 52.5t53 127.5q0 73 -53 125q-28 28 -114 83q-101 55 -140 94q-61 61 -61 147t61 147.5t147 61.5t143 -57q55 -55 55 -126v-4l-69 -28q-9 67 -42 101t-87 34q-53 0 -91 -38t-38 -91t38 -91q22 -23 93 -68 q113 -61 161 -109q75 -76 75 -181q0 -108 -75 -183q-72 -73 -175 -76l-48 -55q32 6 58 6q51 0 80 -23q40 -31 40 -74v-9q-5 -49 -61 -90q-49 -28 -104 -28q-31 0 -65 9l17 51q28 -11 55 -11q31 0 60 15q25 18 30 43q1 5 1 11q0 18 -14 32q-18 17 -49 18h-4q-29 0 -47 -6 q-19 -7 -57 -33l-35 34l69 118q-65 17 -115 68q-75 75 -75 165z" />
<glyph unicode="&#x160;" horiz-adv-x="942" d="M55 335l75 27q12 -115 98 -200q100 -100 241 -100t241 100t100 241q0 140 -100 240q-88 88 -215 140q-151 50 -238.5 137.5t-87.5 212.5q0 122 87.5 210t212.5 88q123 0 212 -88q48 -47 67 -105l-72 -28q-16 43 -52 79q-64 64 -155 64t-155.5 -64t-64.5 -156 q0 -91 64 -156q60 -59 166 -108q170 -55 286 -171q122 -122 122 -295q0 -174 -122.5 -297t-295.5 -123q-174 0 -296 124q-99 98 -118 228zM219 1816h93l155 -126l165 126h92l-211 -207h-92z" />
<glyph unicode="&#x161;" horiz-adv-x="644" d="M55 240l79 20q0 -77 52.5 -129.5t125.5 -52.5t126 52.5t53 127.5q0 73 -53 125q-28 28 -114 83q-101 55 -140 94q-61 61 -61 147t61 147.5t147 61.5t143 -57q55 -55 55 -126v-4l-69 -28q-9 67 -42 101t-87 34q-53 0 -91 -38t-38 -91t38 -91q22 -23 93 -68 q113 -61 161 -109q75 -76 75 -181q0 -108 -75 -183.5t-182 -75.5t-182 75.5t-75 165.5zM60 1270h93l155 -126l165 126h92l-211 -207h-92z" />
<glyph unicode="&#x164;" horiz-adv-x="859" d="M32 1334v80h795v-80h-358v-1334h-79v1334h-358zM177 1816h93l155 -126l165 126h92l-211 -207h-92z" />
<glyph unicode="&#x165;" horiz-adv-x="564" d="M32 788v80h177v369h79v-369h177v-80h-177v-788h-79v788h-177zM405 1316q0 33 23.5 55.5t56.5 22.5q32 0 55.5 -22.5t23.5 -55.5q0 -19 -6 -35l-87 -175h-57l50 133q-20 4 -35 20q-24 23 -24 57z" />
<glyph unicode="&#x166;" horiz-adv-x="859" d="M33 1334v80h795v-80h-358v-587h260v-79h-260v-668h-79v668h-261v79h261v587h-358z" />
<glyph unicode="&#x167;" horiz-adv-x="497" d="M33 469v80h177v239h-177v80h177v369h79v-369h177v-80h-177v-239h177v-80h-177v-469h-79v469h-177z" />
<glyph unicode="&#x168;" horiz-adv-x="1147" d="M112 449v965h80v-965q0 -157 112 -269t270 -112t269.5 112t111.5 269v965h80v-1016q-22 -162 -135 -275q-135 -135 -326 -135q-192 0 -327 135t-135 326zM382 1660q1 37 9 60q18 55 63 74q11 5 25 5q41 0 104 -46q59 -43 82 -43h4q18 7 26 32q4 14 4 49l66 -13 q-2 -37 -10 -61q-18 -55 -62 -74q-12 -4 -25 -4q-41 0 -105 45q-59 44 -82 44q-3 0 -4 -1q-17 -6 -25 -32q-5 -14 -5 -49z" />
<glyph unicode="&#x169;" horiz-adv-x="880" d="M87 327v542h80v-535q0 -110 80 -188q79 -79 197 -79q110 0 189.5 78.5t79.5 188.5v535h80v-542q-3 -147 -99 -243t-249 -96q-163 0 -259 96t-99 243zM249 1114q1 37 9 60q18 55 63 74q11 5 25 5q41 0 104 -46q59 -43 82 -43h4q18 7 26 32q4 14 4 49l66 -13 q-2 -37 -10 -61q-18 -55 -62 -74q-12 -4 -25 -4q-41 0 -105 45q-59 44 -82 44q-3 0 -4 -1q-17 -6 -25 -32q-5 -14 -5 -49z" />
<glyph unicode="&#x16a;" horiz-adv-x="1147" d="M112 449v965h80v-965q0 -157 112 -269t270 -112t269.5 112t111.5 269v965h80v-1016q-22 -162 -135 -275q-135 -135 -326 -135q-192 0 -327 135t-135 326zM313 1668v62h521v-62h-521z" />
<glyph unicode="&#x16b;" horiz-adv-x="880" d="M87 327v542h80v-535q0 -110 80 -188q79 -79 197 -79q110 0 189.5 78.5t79.5 188.5v535h80v-542q-3 -147 -99 -243t-249 -96q-163 0 -259 96t-99 243zM180 1122v62h521v-62h-521z" />
<glyph unicode="&#x16c;" horiz-adv-x="1147" d="M112 449v965h80v-965q0 -157 112 -269t270 -112t269.5 112t111.5 269v965h80v-1016q-22 -162 -135 -275q-135 -135 -326 -135q-192 0 -327 135t-135 326zM366 1828h65q7 -47 41 -80q42 -43 103 -43q59 0 101 43q35 33 41 80h64q-7 -73 -60 -126q-60 -61 -146 -61 q-88 0 -148 61q-57 58 -61 126z" />
<glyph unicode="&#x16d;" horiz-adv-x="880" d="M87 327v542h80v-535q0 -110 80 -188q79 -79 197 -79q110 0 189.5 78.5t79.5 188.5v535h80v-542q-3 -147 -99 -243t-249 -96q-163 0 -259 96t-99 243zM233 1282h65q7 -47 41 -80q42 -43 103 -43q59 0 101 43q35 33 41 80h64q-7 -73 -60 -126q-60 -61 -146 -61 q-88 0 -148 61q-57 58 -61 126z" />
<glyph unicode="&#x16e;" horiz-adv-x="1147" d="M112 449v965h80v-965q0 -157 112 -269t270 -112t269.5 112t111.5 269v965h80v-1016q-22 -162 -135 -275q-135 -135 -326 -135q-192 0 -327 135t-135 326zM465 1702q0 45 32 77t77 32t76.5 -32t31.5 -77q0 -44 -31.5 -75.5t-76.5 -31.5t-77 31.5t-32 75.5zM522 1702 q0 -20 15 -35t37 -15q20 0 35 15t15 35q0 22 -15 37t-35 15q-22 0 -37 -15t-15 -37z" />
<glyph unicode="&#x16f;" horiz-adv-x="880" d="M87 327v542h80v-535q0 -110 80 -188q79 -79 197 -79q110 0 189.5 78.5t79.5 188.5v535h80v-542q-3 -147 -99 -243t-249 -96q-163 0 -259 96t-99 243zM332 1156q0 45 32 77t77 32t76.5 -32t31.5 -77q0 -44 -31.5 -75.5t-76.5 -31.5t-77 31.5t-32 75.5zM389 1156 q0 -20 15 -35t37 -15q20 0 35 15t15 35q0 22 -15 37t-35 15q-22 0 -37 -15t-15 -37z" />
<glyph unicode="&#x170;" horiz-adv-x="1147" d="M112 449v965h80v-965q0 -157 112 -269t270 -112t269.5 112t111.5 269v965h80v-1016q-22 -162 -135 -275q-135 -135 -326 -135q-192 0 -327 135t-135 326zM337 1601l144 165h147l-217 -165h-74zM539 1601l144 165h147l-216 -165h-75z" />
<glyph unicode="&#x171;" horiz-adv-x="880" d="M87 327v542h80v-535q0 -110 80 -188q79 -79 197 -79q110 0 189.5 78.5t79.5 188.5v535h80v-542q-3 -147 -99 -243t-249 -96q-163 0 -259 96t-99 243zM204 1055l144 165h147l-217 -165h-74zM406 1055l144 165h147l-216 -165h-75z" />
<glyph unicode="&#x172;" horiz-adv-x="1147" d="M112 449v965h80v-965q0 -157 112 -269t270 -112t269.5 112t111.5 269v965h80v-1016q-22 -162 -135 -275q-69 -69 -153 -103q-17 -23 -17 -49q0 -8 1 -15l1 -6q6 -32 33 -54q24 -19 52 -19q5 0 10 1h6q31 6 61 35l26 -43l-4 -4q-26 -34 -71 -42l-12 -3q-9 -1 -17 -1 q-46 0 -86 31q-43 33 -53 84q-1 7 -1 14q-1 10 -1 19q0 16 3 31q-50 -11 -104 -11q-192 0 -327 135t-135 326z" />
<glyph unicode="&#x173;" horiz-adv-x="880" d="M87 327v542h80v-535q0 -110 80 -188q79 -79 197 -79q110 0 189.5 78.5t79.5 188.5v535h80v-542q-3 -147 -99 -243q-64 -64 -155 -86q-9 -17 -9 -37q0 -7 1 -15l1 -6q6 -32 33 -54q24 -19 52 -19q5 0 10 1h6q31 6 61 35l26 -43l-4 -4q-26 -34 -71 -42l-12 -3q-9 -1 -17 -1 q-46 0 -86 31q-43 33 -53 84q-1 7 -1 14q-1 10 -1 19q0 16 3 31q-16 -1 -33 -1q-163 0 -259 96t-99 243z" />
<glyph unicode="&#x174;" horiz-adv-x="1642" d="M0 1414h82l343 -1285h1l350 870h88l351 -870l344 1285h83l-379 -1414h-81l-361 894l-361 -894h-82zM569 1529l202 207h92l211 -207h-92l-165 126l-155 -126h-93z" />
<glyph unicode="&#x175;" horiz-adv-x="1094" d="M0 868h92l221 -743l181 595h105l177 -595l227 743h91l-267 -868h-102l-179 592l-182 -592h-102zM295 1063l202 207h92l211 -207h-92l-165 126l-155 -126h-93z" />
<glyph unicode="&#x176;" horiz-adv-x="1116" d="M32 1414h91l435 -754l435 754h91l-486 -842v-572h-80v572zM306 1609l202 207h92l211 -207h-92l-165 126l-155 -126h-93z" />
<glyph unicode="&#x177;" horiz-adv-x="779" d="M15 868h89l285 -606l286 606h89l-329 -705h-1l-229 -493h-89l229 491zM137 1063l202 207h92l211 -207h-92l-165 126l-155 -126h-93z" />
<glyph unicode="&#x178;" horiz-adv-x="1116" d="M32 1414h91l435 -754l435 754h91l-486 -842v-572h-80v572zM346 1773q0 32 23.5 55t56.5 23q32 0 55.5 -23t23.5 -55q0 -34 -23.5 -57t-55.5 -23q-33 0 -56.5 23t-23.5 57zM611 1773q0 32 23.5 55t56.5 23q32 0 55.5 -23t23.5 -55q0 -34 -23.5 -57t-55.5 -23 q-33 0 -56.5 23t-23.5 57z" />
<glyph unicode="&#x179;" horiz-adv-x="1075" d="M84 0l770 1334h-770v80h907l-771 -1334h771v-80h-907zM441 1618l144 165h147l-217 -165h-74z" />
<glyph unicode="&#x17a;" horiz-adv-x="743" d="M62 0l46 80l402 696h-448v79h585l-46 -79l-403 -696h483v-80h-619zM275 1072l144 165h147l-217 -165h-74z" />
<glyph unicode="&#x17b;" horiz-adv-x="1075" d="M84 0l770 1334h-770v80h907l-771 -1334h771v-80h-907zM470 1760q0 28 20 47.5t48 19.5q27 0 47 -19.5t20 -47.5t-20 -47.5t-47 -19.5q-28 0 -48 19.5t-20 47.5z" />
<glyph unicode="&#x17c;" horiz-adv-x="743" d="M62 0l46 80l402 696h-448v79h585l-46 -79l-403 -696h483v-80h-619zM304 1214q0 28 20 47.5t48 19.5q27 0 47 -19.5t20 -47.5t-20 -47.5t-47 -19.5q-28 0 -48 19.5t-20 47.5z" />
<glyph unicode="&#x17d;" horiz-adv-x="1075" d="M84 0l770 1334h-770v80h907l-771 -1334h771v-80h-907zM285 1816h93l155 -126l165 126h92l-211 -207h-92z" />
<glyph unicode="&#x17e;" horiz-adv-x="743" d="M62 0l46 80l402 696h-448v79h585l-46 -79l-403 -696h483v-80h-619zM119 1270h93l155 -126l165 126h92l-211 -207h-92z" />
<glyph unicode="&#x1fc;" horiz-adv-x="1442" d="M55 0l615 1414h717v-80h-627v-587h627v-80h-627v-587h627v-80h-706v542h-300l-241 -542h-85zM410 621h271v629zM624 1618l144 165h147l-217 -165h-74z" />
<glyph unicode="&#x1fd;" horiz-adv-x="1873" d="M74 460q0 202 142.5 344t342.5 142q202 0 344 -142q27 -28 50 -59v123h80v-48q137 126 326 126q201 0 343 -142q126 -126 131 -299l-800 1v-280q18 -25 42 -48q118 -118 284 -118t283 118q21 20 38 42l85 -30q-15 -25 -63 -72q-142 -143 -343 -143q-189 0 -326 127v-102 h-80v177q-23 -31 -50 -59q-142 -143 -344 -143q-200 0 -342.5 142.5t-142.5 342.5zM158 460q0 -166 117.5 -283t283.5 -117t284 118q42 42 69 90q30 53 41 114v157q-11 61 -41 114q-27 49 -69 91q-118 118 -284 118t-283.5 -118t-117.5 -284zM857 1072l144 165h147 l-217 -165h-74zM1033 586h705q-28 91 -96 158q-117 118 -283 118t-284 -118q-24 -24 -42 -49v-109z" />
<glyph unicode="&#x1fe;" horiz-adv-x="1647" d="M98 709q0 300 212.5 512.5t512.5 212.5q146 0 271 -50l76 162l72 -33l-76 -163q91 -49 171 -128q212 -213 212 -513q0 -301 -212.5 -513.5t-513.5 -212.5q-145 0 -270 51l-76 -163l-72 34l76 162q-91 50 -170 129q-213 212 -213 513zM179 709q0 -267 189 -456 q68 -68 147 -113l544 1170q-108 43 -236 43q-266 0 -455 -189t-189 -455zM587 107q109 -43 236 -43q267 0 456 189t189 456q0 266 -189 456q-69 68 -147 111zM727 1618l144 165h147l-217 -165h-74z" />
<glyph unicode="&#x1ff;" horiz-adv-x="1080" d="M55 461q0 202 142.5 344t342.5 142q114 0 210 -46l107 188l70 -37l-110 -190q35 -25 67 -57q141 -142 141 -344q0 -200 -141.5 -342.5t-343.5 -142.5q-114 0 -208 46l-109 -188l-70 33l111 195q-35 25 -67 56q-142 143 -142 343zM139 461q0 -166 117 -283q24 -24 51 -43 l399 693q-76 34 -166 34q-166 0 -283.5 -117.5t-117.5 -283.5zM374 95q76 -34 166 -34q166 0 283.5 117t117.5 283t-117 284q-24 24 -50 42zM443 1072l144 165h147l-217 -165h-74z" />
<glyph unicode="&#x2c6;" horiz-adv-x="655" d="M75 1063l202 207h92l211 -207h-92l-165 126l-155 -126h-93z" />
<glyph unicode="&#x2c7;" horiz-adv-x="655" d="M75 1270h93l155 -126l165 126h92l-211 -207h-92z" />
<glyph unicode="&#x2c9;" horiz-adv-x="671" d="M75 1122v62h521v-62h-521z" />
<glyph unicode="&#x2d8;" horiz-adv-x="565" d="M75 1282h65q7 -47 41 -80q42 -43 103 -43q59 0 101 43q35 33 41 80h64q-7 -73 -60 -126q-60 -61 -146 -61q-88 0 -148 61q-57 58 -61 126z" />
<glyph unicode="&#x2d9;" horiz-adv-x="285" d="M75 1214q0 28 20 47.5t48 19.5q27 0 47 -19.5t20 -47.5t-20 -47.5t-47 -19.5q-28 0 -48 19.5t-20 47.5z" />
<glyph unicode="&#x2da;" horiz-adv-x="367" d="M75 1156q0 45 32 77t77 32t76.5 -32t31.5 -77q0 -44 -31.5 -75.5t-76.5 -31.5t-77 31.5t-32 75.5zM132 1156q0 -20 15 -35t37 -15q20 0 35 15t15 35q0 22 -15 37t-35 15q-22 0 -37 -15t-15 -37z" />
<glyph unicode="&#x2db;" horiz-adv-x="434" d="M92 -112q0 7 1 14q5 61 50 100q38 32 83 32q9 0 18 -1l26 -29q-63 -20 -91 -44q-29 -25 -31 -62v-6q0 -33 22 -59q24 -28 58 -30q3 -1 6 -1q31 0 66 23l17 -48l-4 -3q-32 -28 -78 -28h-12q-57 4 -96 49q-35 41 -35 93z" />
<glyph unicode="&#x2dc;" horiz-adv-x="533" d="M75 1114q1 37 9 60q18 55 63 74q11 5 25 5q41 0 104 -46q59 -43 82 -43h4q18 7 26 32q4 14 4 49l66 -13q-2 -37 -10 -61q-18 -55 -62 -74q-12 -4 -25 -4q-41 0 -105 45q-59 44 -82 44q-3 0 -4 -1q-17 -6 -25 -32q-5 -14 -5 -49z" />
<glyph unicode="&#x2dd;" horiz-adv-x="643" d="M75 1055l144 165h147l-217 -165h-74zM277 1055l144 165h147l-216 -165h-75z" />
<glyph unicode="&#x1e80;" horiz-adv-x="1642" d="M0 1414h82l343 -1285h1l350 870h88l351 -870l344 1285h83l-379 -1414h-81l-361 894l-361 -894h-82zM627 1703h147l144 -165h-75z" />
<glyph unicode="&#x1e81;" horiz-adv-x="1094" d="M0 868h92l221 -743l181 595h105l177 -595l227 743h91l-267 -868h-102l-179 592l-182 -592h-102zM353 1237h147l144 -165h-75z" />
<glyph unicode="&#x1e82;" horiz-adv-x="1642" d="M0 1414h82l343 -1285h1l350 870h88l351 -870l344 1285h83l-379 -1414h-81l-361 894l-361 -894h-82zM724 1538l144 165h147l-217 -165h-74z" />
<glyph unicode="&#x1e83;" horiz-adv-x="1094" d="M0 868h92l221 -743l181 595h105l177 -595l227 743h91l-267 -868h-102l-179 592l-182 -592h-102zM450 1072l144 165h147l-217 -165h-74z" />
<glyph unicode="&#x1e84;" horiz-adv-x="1642" d="M0 1414h82l343 -1285h1l350 870h88l351 -870l344 1285h83l-379 -1414h-81l-361 894l-361 -894h-82zM609 1693q0 32 23.5 55t56.5 23q32 0 55.5 -23t23.5 -55q0 -34 -23.5 -57t-55.5 -23q-33 0 -56.5 23t-23.5 57zM874 1693q0 32 23.5 55t56.5 23q32 0 55.5 -23t23.5 -55 q0 -34 -23.5 -57t-55.5 -23q-33 0 -56.5 23t-23.5 57z" />
<glyph unicode="&#x1e85;" horiz-adv-x="1094" d="M0 868h92l221 -743l181 595h105l177 -595l227 743h91l-267 -868h-102l-179 592l-182 -592h-102zM335 1227q0 32 23.5 55t56.5 23q32 0 55.5 -23t23.5 -55q0 -34 -23.5 -57t-55.5 -23q-33 0 -56.5 23t-23.5 57zM600 1227q0 32 23.5 55t56.5 23q32 0 55.5 -23t23.5 -55 q0 -34 -23.5 -57t-55.5 -23q-33 0 -56.5 23t-23.5 57z" />
<glyph unicode="&#x1ef2;" horiz-adv-x="1116" d="M32 1414h91l435 -754l435 754h91l-486 -842v-572h-80v572zM364 1783h147l144 -165h-75z" />
<glyph unicode="&#x1ef3;" horiz-adv-x="779" d="M15 868h89l285 -606l286 606h89l-329 -705h-1l-229 -493h-89l229 491zM196 1237h147l144 -165h-75z" />
<glyph unicode="&#x2013;" horiz-adv-x="681" d="M0 483v80h681v-80h-681z" />
<glyph unicode="&#x2014;" horiz-adv-x="1254" d="M0 483v80h1254v-80h-1254z" />
<glyph unicode="&#x2015;" horiz-adv-x="3072" d="M0 483v80h1881v-80h-1881z" />
<glyph unicode="&#x2017;" horiz-adv-x="794" d="M-45 -27h884v-79h-884v79zM-45 -224h884v-79h-884v79z" />
<glyph unicode="&#x2018;" horiz-adv-x="255" d="M48 1214q0 19 6 35l87 174h57l-50 -132q20 -4 36 -20q23 -23 23 -57q0 -33 -23.5 -56t-55.5 -23q-33 0 -56.5 23t-23.5 56z" />
<glyph unicode="&#x2019;" horiz-adv-x="255" d="M48 1345q0 33 23.5 55.5t56.5 22.5q32 0 55.5 -22.5t23.5 -55.5q0 -19 -6 -35l-87 -175h-57l50 133q-20 4 -35 20q-24 23 -24 57z" />
<glyph unicode="&#x201a;" horiz-adv-x="255" d="M48 65q0 33 23.5 56t56.5 23q32 0 55.5 -23t23.5 -56q0 -18 -6 -34l-87 -175h-57l50 133q-20 4 -35 20q-24 23 -24 56z" />
<glyph unicode="&#x201b;" horiz-adv-x="255" d="M48 1345q0 33 23.5 55.5t55.5 22.5q33 0 56.5 -22.5t23.5 -55.5q0 -34 -24 -57q-15 -16 -35 -20l50 -133h-57l-87 175q-6 16 -6 35z" />
<glyph unicode="&#x201c;" horiz-adv-x="478" d="M48 1214q0 19 6 35l87 174h57l-50 -132q20 -4 36 -20q23 -23 23 -57q0 -33 -23.5 -56t-55.5 -23q-33 0 -56.5 23t-23.5 56zM271 1214q0 19 6 35l86 174h58l-50 -132q20 -4 36 -20q23 -23 23 -57q0 -33 -23.5 -56t-56.5 -23t-56 23t-23 56z" />
<glyph unicode="&#x201d;" horiz-adv-x="478" d="M48 1345q0 33 23.5 55.5t56.5 22.5q32 0 55.5 -22.5t23.5 -55.5q0 -19 -6 -35l-87 -175h-57l50 133q-20 4 -35 20q-24 23 -24 57zM271 1345q0 33 23 55.5t56 22.5t56.5 -22.5t23.5 -55.5q0 -19 -6 -35l-87 -175h-57l50 133q-20 4 -35 20q-24 23 -24 57z" />
<glyph unicode="&#x201e;" horiz-adv-x="478" d="M48 66q0 33 23.5 55.5t56.5 22.5q32 0 55.5 -22.5t23.5 -55.5q0 -19 -6 -35l-87 -175h-57l50 133q-20 4 -35 20q-24 23 -24 57zM271 66q0 33 23 55.5t56 22.5t56.5 -22.5t23.5 -55.5q0 -19 -6 -35l-87 -175h-57l50 133q-20 4 -35 20q-24 23 -24 57z" />
<glyph unicode="&#x2020;" horiz-adv-x="689" d="M98 1359v51h221v193h51v-193h221v-51h-221v-1206h-51v1206h-221z" />
<glyph unicode="&#x2021;" horiz-adv-x="689" d="M98 879v51h221v429h-221v51h221v193h51v-193h221v-51h-221v-429h221v-51h-221v-726h-51v726h-221z" />
<glyph unicode="&#x2022;" horiz-adv-x="2623" d="M148 -53q18 9 25 13.5t7 7.5v159q0 20 -30 29q78 37 111 60q16 -2 20 -46v-2l23 10l102 38q7 -38 16 -68t18 -87q1 -11 1 -21q0 -48 -32 -98q-40 -62 -113 -126q46 85 46 158q0 20 -3 39q-16 89 -27 112q-31 -23 -31 -47v-103q0 -3 3.5 -11t31.5 -15q-28 -9 -76 -38 q-15 -9 -29 -9q-32 0 -63 45zM206 965v25q198 54 260 129q65 93 154 93h7q117 0 117 -69q0 -21 -18 -42v-7q19 -111 99 -111l-62 266q21 0 74 80l223 267h482q25 -20 223 -292q49 -53 49 -79v-13l-44 -161l13 -37l-25 -37h7q104 43 104 117v7q-17 21 -17 42q0 69 116 69h7 q92 0 186 -123q60 -50 228 -99v-25q-18 0 -18 -12l5 -8v-5q-5 -25 -37 -25h-12l-191 -12q-28 25 -94 25l-54 25l-7 -20q23 -74 106 -74l17 -5q69 5 69 17v7l-12 18v7l25 -12l30 5h99l37 7l19 -7v-12q0 -36 -180 -62l-111 7v-20q100 -30 167 -30h38v-7q-46 -62 -144 -62h-24 q-62 0 -142 32v-7q0 -32 142 -79q0 -25 -67 -32q-39 0 -168 56q0 -30 61 -81l-17 -12l-119 37v-5l20 -50l-25 -7q-33 0 -118 111l-55 -272v-5h-656q-33 0 -74 260q-65 -83 -106 -94l-25 7l20 55h-7q-76 -37 -117 -37l-12 19q62 37 62 74h-8q-113 -56 -166 -56q-62 7 -62 32 q142 47 142 79v7h-5q-64 -32 -137 -32h-24q-97 0 -143 62v7h37q67 0 168 30v20l-124 -7q-168 30 -168 62v12h12v7l45 -7h99l24 -5l30 12v-7l-12 -18v-7q0 -12 62 -17q131 10 131 91l-8 8q-45 -25 -123 -32q0 -9 -25 -18l-191 12h-12q-32 0 -37 25l5 18zM392 970l12 -12h80 l19 19v13h-12v5l-99 -18v-7zM416 -140q1 59 61 85q-7 20 -7 23v159q0 20 -30 29q77 37 111 60q16 -2 19 -46v-195q2 -15 12 -15t29 17v150q0 20 -30 29q78 37 111 60q16 -2 20 -46v-159q0 -45 -70 -77t-111 -32h-4q-38 0 -47 -29q-2 -7 -2 -13q0 -20 23 -29q8 -3 18 -3 q25 0 60 20q30 18 56 18q16 0 29 -7q16 -7 27 -29q4 -8 4 -17q0 -12 -8 -23q-14 -14 -29 -14q-7 0 -15 3q-23 14 -37 46q-2 3 -5 3t-9 -6q-47 -47 -91 -47q-15 0 -29 5q-56 20 -56 78v2zM478 760h80q80 0 111 69v42h-5l-99 -42q0 -13 -69 -37l-18 -20v-12zM627 1163l18 -37 l61 24v18h-79v-5zM632 921l7 -6h25l12 13l-19 42h-12zM639 705l6 -7v-5q99 35 99 111v5h-6q-56 -37 -99 -99v-5zM701 854h18l12 12v12q0 9 -25 18l-5 -5v-37zM721 -53l23 13q8 5 8 8v159q0 20 -30 29q76 37 112 60q16 -2 19 -46v-2l23 10l76 38q2 -7 25 -38q7 -7 10 -14 q16 7 34 14l76 38q0 -7 23 -36.5t23 -45.5v-159q0 -3 3 -11q4 -7 29 -14v177q0 20 -30 29q77 37 111 60q12 -27 25 -46q10 3 21 8l101 38q7 -38 26 -101q9 -29 9 -54q0 -27 -11 -49q-24 -53 -84 -84q-39 -20 -68 -27v-51q0 -6 4 -13.5t32 -13.5q-28 -10 -75 -39 q-14 -9 -29 -9q-32 0 -64 47q18 7 25 12t7 7v107q-28 -10 -73 -38q-10 -6 -21 -6q-22 0 -39 32v128q-3 26 -30 61q-9 -12 -12 -33v-117q0 -3 3.5 -11t31.5 -15q-28 -9 -76 -39q-11 -6 -21 -6q-23 0 -39 32v128q-3 26 -30 61q-16 -12 -16 -33v-117q0 -3 3.5 -11t16.5 -15 q-13 -9 -61 -38q-15 -9 -29 -9q-32 0 -62 45zM751 673h5l56 20v67h-7q-54 -28 -54 -87zM768 829l20 -20h5l12 13v7l-17 17h-7l-13 -12v-5zM843 673l7 -5v-7q24 9 37 32v24l-13 13l-31 -32v-25zM843 785l7 -6h5l12 13l-12 12zM855 1279h19q170 202 211 267q-20 0 -20 18h-5 q-99 -99 -99 -136q-106 -117 -106 -149zM867 1193h7l6 -5h7q0 30 79 116l143 198l-12 12l-57 -74q-153 -191 -173 -247zM904 1039q60 -401 174 -433l-167 451h-7v-18zM917 1188l198 -569h358q82 224 168 537l-62 99q-143 221 -143 242h-297l-222 -304v-5zM1060 445l25 -7 l129 62v7q0 13 -75 25q-30 0 -79 -81v-6zM1109 850v5q57 135 57 181q-37 79 -37 111q30 161 161 161h3q157 0 157 -161q0 -30 -44 -124v-7l62 -166h-359zM1127 581l12 -12h273l61 5v7h-346zM1279 60q0 -19 12 -41q13 -21 32 -21q25 4 27 32q-4 28 -18 51q-12 21 -23 44 q-30 -23 -30 -65zM1382 500l136 -62l17 7v6q-32 60 -74 81q-79 -12 -79 -25v-7zM1422 -53q18 9 25 13.5t7 7.5v339q0 20 -30 31q78 37 110 46q17 -25 38 -50q-17 -4 -17 -19v-142q7 4 16 7l100 37q7 -37 16 -67q11 -30 19 -70q2 -8 2 -17q0 -36 -24 -88q-30 -65 -108 -123 q37 71 37 131q0 23 -5 44q-20 77 -30 100q-16 -10 -23 -23v-129q0 -3 3.5 -11t31.5 -15q-28 -9 -76 -38q-15 -9 -29 -9q-32 0 -63 45zM1456 1509l161 -254q49 -75 79 -75l25 20l-228 339zM1523 1539q171 -226 205 -252v5q-154 231 -205 267v-20zM1535 643h7q87 0 149 396 q-6 43 -20 43q-37 -50 -136 -409v-30zM1696 717q0 -28 50 -56l7 7v30l-45 37q-12 0 -12 -18zM1718 26q0 32 13 61q25 54 115 91l103 38q5 -38 25 -101q9 -29 9 -54q0 -27 -11 -49q-25 -53 -85 -84q-56 -29 -91 -29h-7q-36 4 -59 64q-12 33 -12 63zM1728 792l12 -13l13 13 l-20 12l-5 -7v-5zM1783 693l56 -20h6v7q0 50 -55 80h-7v-67zM1790 822l12 -13h5l20 20v5l-13 12h-7l-17 -17v-7zM1823 60q0 -19 13 -41q12 -21 33 -21q25 4 25 32q-4 28 -18 51q-12 21 -23 44q-30 -23 -30 -65zM1852 804q0 -76 99 -111l5 5v12q-43 62 -99 99h-5v-5z M1864 866l12 -12h18v30l-18 19l-12 -12v-25zM1889 1150l62 -24l17 37v5h-79v-18zM1913 933l18 -18h20l12 13l-12 42h-20q-18 -5 -18 -37zM1926 854q0 -80 104 -94h87v12q-23 27 -87 50q0 17 -74 32l-25 17h-5v-17zM1979 -53q17 9 24.5 13.5t7.5 7.5v159q0 20 -30 29 q77 37 111 60q16 -2 19 -46v-2l25 10l101 38q7 -38 16 -68q10 -30 18 -87q2 -10 2 -19q0 -49 -33 -100q-39 -62 -113 -126q46 85 46 158q0 20 -3 39q-16 89 -27 112q-30 -23 -30 -47h-2v-103q0 -3 3.5 -11t32.5 -15q-27 -9 -75 -38q-15 -9 -29 -9q-32 0 -64 45zM2092 977 l19 -19h80l12 12v7l-92 18l-19 -5v-13zM2278 117q0 16 8 33q7 14 25 23q5 2 9 4v58q0 57 33 99q34 42 114 48q-46 -50 -46 -140v-76q21 9 38 20q8 -18 8 -35q0 -18 -8 -34q-7 -15 -24 -23q-7 -4 -14 -4v-78q2 -27 23 -27q12 0 31 10q-23 -48 -67 -81q-15 -10 -32 -10 q-38 0 -88 43q18 9 25 13.5t7 7.5v131q-16 -7 -34 -18q-8 18 -8 36z" />
<glyph unicode="&#x2026;" horiz-adv-x="2048" d="M98 67q0 33 23.5 56t56.5 23q32 0 55.5 -23t23.5 -56t-23.5 -56t-55.5 -23q-33 0 -56.5 23t-23.5 56zM781 67q0 33 23.5 56t56.5 23q32 0 55.5 -23t23.5 -56t-23.5 -56t-55.5 -23q-33 0 -56.5 23t-23.5 56zM1464 67q0 33 23.5 56t56.5 23q32 0 55.5 -23t23.5 -56 t-23.5 -56t-55.5 -23q-33 0 -56.5 23t-23.5 56z" />
<glyph unicode="&#x2030;" horiz-adv-x="1580" d="M78 869q0 85 59.5 145t144.5 60t144.5 -60t59.5 -145q0 -84 -59.5 -144t-144.5 -60t-144.5 60t-59.5 144zM109 48l811 1158l65 -45l-811 -1158zM155 869q0 -53 37 -90t90 -37q52 0 89.5 37t37.5 90t-37.5 90.5t-89.5 37.5q-53 0 -90 -37.5t-37 -90.5zM608 339 q0 85 59.5 144.5t144.5 59.5t144.5 -59.5t59.5 -144.5t-59.5 -144.5t-144.5 -59.5t-144.5 59.5t-59.5 144.5zM685 339q0 -53 37 -90t90 -37q52 0 90 37t38 90t-38 90.5t-90 37.5q-53 0 -90 -37.5t-37 -90.5zM1094 339q0 85 59.5 144.5t144.5 59.5t144.5 -59.5t59.5 -144.5 t-59.5 -144.5t-144.5 -59.5t-144.5 59.5t-59.5 144.5zM1171 339q0 -53 37 -90t90 -37q52 0 89.5 37t37.5 90t-37.5 90.5t-89.5 37.5q-53 0 -90 -37.5t-37 -90.5z" />
<glyph unicode="&#x2032;" horiz-adv-x="326" d="M123 881v530h80v-530h-80z" />
<glyph unicode="&#x2033;" horiz-adv-x="486" d="M123 881v530h80v-530h-80zM283 881v530h80v-530h-80z" />
<glyph unicode="&#x2039;" horiz-adv-x="506" d="M55 425l396 425v-113l-291 -312l291 -311v-114z" />
<glyph unicode="&#x203a;" horiz-adv-x="506" d="M55 0v114l290 311l-290 312v113l396 -425z" />
<glyph unicode="&#x203c;" horiz-adv-x="538" d="M55 67q0 33 23.5 56t56.5 23q32 0 55.5 -23t23.5 -56t-23.5 -56t-55.5 -23q-33 0 -56.5 23t-23.5 56zM93 244v1170h80v-1170h-80zM324 67q0 33 23.5 56t56.5 23q32 0 55.5 -23t23.5 -56t-23.5 -56t-55.5 -23q-33 0 -56.5 23t-23.5 56zM362 244v1170h80v-1170h-80z" />
<glyph unicode="&#x203e;" horiz-adv-x="794" d="M-45 1534v79h884v-79h-884z" />
<glyph unicode="&#x2044;" horiz-adv-x="327" d="M-600 0l1413 1414h114l-1415 -1414h-112z" />
<glyph unicode="&#x2215;" horiz-adv-x="327" d="M-600 0l1413 1414h114l-1415 -1414h-112z" />
<glyph unicode="&#x207f;" horiz-adv-x="55" d="M55 494v868h80v-56q108 108 252 108q154 0 250.5 -96.5t98.5 -242.5v-581h-79v573q0 111 -80 189t-190 78q-109 0 -189 -77q-43 -43 -63 -89v-674h-80z" />
<glyph unicode="&#x20a3;" d="M154 334v80h143v1000h619v-80h-539v-587h539v-80h-539v-253h254v-80h-254v-334h-80v334h-143z" />
<glyph unicode="&#x20a4;" d="M124 18q110 97 138 131q94 112 95 253h-208v80h202q-7 53 -23 106h-179v79h151q-15 35 -33 70q-98 159 -110 303q-2 17 -2 34q0 122 81 220q91 108 235 122h34q123 0 221 -81q109 -93 123 -236q2 -20 2 -39q0 -55 -19 -100l-76 25q13 38 13 84q0 13 -1 25 q-10 109 -94 179q-75 62 -168 62q-13 0 -25 -1q-110 -9 -180 -93q-62 -75 -62 -167q0 -14 1 -27q9 -100 69 -226q47 -75 77 -154h205v-79h-179q14 -53 20 -106h159v-80h-153q-6 -175 -151 -346q111 39 218 39q63 0 126 -14q88 -20 166 -20q71 0 134 16l15 -79 q-72 -17 -149 -17q-78 0 -161 19q-87 19 -153 19q-60 0 -104 -15q-92 -34 -178 -77z" />
<glyph unicode="&#x20a7;" horiz-adv-x="1665" d="M148 0v1414h334q145 -22 247 -135q122 -136 122 -326q0 -45 -6 -85h74v369h80v-369h219q47 28 105 28q87 0 143 -57q55 -55 55 -126v-4l-69 -28q-9 67 -42 101t-87 34q-53 0 -91 -38t-38 -91t38 -91q22 -23 94 -68q113 -61 161 -109q75 -76 75 -181q0 -108 -75 -183.5 t-182 -75.5t-182 75.5t-75 165.5l78 20q0 -77 52.5 -129.5t126.5 -52.5q73 0 125.5 52.5t52.5 127.5q0 73 -52 125q-28 28 -114 83q-102 55 -140 94q-61 61 -61 147q0 55 25 101h-142v-788h-80v788h-93q-30 -89 -97 -162q-122 -136 -293 -136h-216v-490h-72zM220 571h216 q141 0 242 111.5t101 270.5q0 158 -101 269t-242 111h-216v-762z" />
<glyph unicode="&#x20ac;" d="M0 517l15 79h128v106h-107l15 80h92v147q0 200 138 342.5t332 142.5q195 0 331 -142l-57 -60q-113 117 -274 117t-275 -117t-114 -283v-147h563l-16 -80h-547v-106h527l-16 -79h-511v-57q0 -166 114 -283t275 -117t274 118q71 72 98 163h84q-30 -125 -125 -223 q-136 -143 -331 -143q-194 0 -332 142.5t-138 342.5v57h-143z" />
<glyph unicode="&#x2105;" horiz-adv-x="1932" d="M52 1051q0 151 107 257.5t257 106.5q151 0 258 -107q22 -22 39 -45l-63 -23q-10 12 -21 24q-89 88 -213 88t-212 -88.5t-88 -212.5q0 -125 88 -213t212 -88t213 89q11 11 21 23l63 -23q-17 -24 -39 -45q-107 -108 -258 -108q-150 0 -257 107t-107 258zM152 0l1413 1414 h114l-1415 -1414h-112zM1133 345q0 152 107 258.5t257 106.5q151 0 257.5 -106.5t106.5 -258.5q0 -150 -106.5 -257t-257.5 -107q-150 0 -257 107t-107 257zM1196 345q0 -124 88 -212t213 -88q124 0 212.5 88t88.5 212q0 125 -88.5 213.5t-212.5 88.5q-125 0 -213 -88.5 t-88 -213.5z" />
<glyph unicode="&#x2116;" horiz-adv-x="1588" d="M100 0v1416l676 -1133v1131h80v-1422l-676 1134v-1126h-80zM992 1164q0 104 73 176.5t175 72.5q103 0 175.5 -72.5t72.5 -176.5q0 -102 -72.5 -175t-175.5 -73q-102 0 -175 73t-73 175zM1012 732v80h456v-80h-456zM1055 1164q0 -76 54 -130.5t131 -54.5t131 54.5 t54 130.5q0 77 -54 131.5t-131 54.5t-131 -54.5t-54 -131.5z" />
<glyph unicode="&#x2122;" horiz-adv-x="1125" d="M98 1375v46h400l236 -362l235 362h58l-8 -12v-568h-50v491l-235 -362l-236 362v-491h-49v534h-140v-534h-50v534h-161z" />
<glyph unicode="&#x2126;" horiz-adv-x="1293" d="M55 0v80h314q-70 47 -131 120q-172 205 -172 495q0 289 171.5 494t414.5 205t414.5 -205t171.5 -494q0 -290 -171 -495q-62 -73 -132 -120h292v-80h-480v80h16v8q138 37 245 168q149 182 149 439q0 256 -149.5 438.5t-360.5 182.5t-360.5 -182.5t-149.5 -438.5 q0 -257 150 -439q106 -131 244 -168v-8h16v-80h-492z" />
<glyph unicode="&#x2190;" horiz-adv-x="1975" d="M22 523l396 425v-113l-254 -272h1789v-80h-1789l254 -271v-114z" />
<glyph unicode="&#x2191;" horiz-adv-x="894" d="M22 1206l425 396l425 -396h-113l-272 253v-1788h-80v1788l-271 -253h-114z" />
<glyph unicode="&#x2192;" horiz-adv-x="1975" d="M22 483v80h1789l-254 272v113l396 -425l-396 -425v114l254 271h-1789z" />
<glyph unicode="&#x2193;" horiz-adv-x="894" d="M22 67h114l271 -254v1789h80v-1789l272 254h113l-425 -396z" />
<glyph unicode="&#x2194;" horiz-adv-x="1975" d="M22 523l396 425v-113l-254 -272h1647l-254 272v113l396 -425l-396 -425v114l254 271h-1647l254 -271v-114z" />
<glyph unicode="&#x2195;" horiz-adv-x="894" d="M22 67h114l271 -254v1647l-271 -254h-114l425 396l425 -396h-113l-272 254v-1647l272 254h113l-425 -396z" />
<glyph unicode="&#x21a8;" horiz-adv-x="894" d="M22 67h114l271 -254v1647l-271 -254h-114l425 396l425 -396h-113l-272 254v-1647l272 254h113l-425 -396zM22 -382h850v-80h-850v80z" />
<glyph unicode="&#x2212;" d="M85 483v80h900v-80h-900z" />
<glyph unicode="&#x221e;" d="M72 697v20q0 82 57 139t137 57q81 0 127.5 -43.5t57.5 -69.5q22 69 80 123q83 77 195 77t191.5 -79t79.5 -191q0 -11 -1 -23q1 -11 1 -23q0 -112 -79.5 -191t-191.5 -79t-195 77q-58 54 -80 123q-11 -26 -57.5 -69t-127.5 -43q-80 0 -137 56.5t-57 138.5zM134 697 q0 -54 38.5 -93t93.5 -39t95 37.5t52 69.5q6 16 9 35q-3 19 -9 35q-12 32 -52 69.5t-95 37.5t-93.5 -38.5t-38.5 -93.5q0 -4 1 -9v-2q-1 -4 -1 -9zM489 707q23 -114 86 -172q65 -59 151 -59q87 0 147.5 61t60.5 147q0 11 -1 23v1q1 11 1 22q0 86 -60.5 147t-147.5 61 q-86 0 -151 -59q-63 -58 -86 -172z" />
<glyph unicode="&#x222b;" horiz-adv-x="497" d="M22 -72h15q162 0 172 170v1168q20 251 257 251h9v-79h-14q-154 0 -173 -170v-1168q-10 -251 -256 -251h-10v79z" />
<glyph unicode="&#x2248;" d="M81 465q2 42 19 85q41 98 139 131q22 7 49 7q93 0 246 -87q166 -97 242 -97q13 0 23 3q68 20 96 88q13 34 13 69l80 -13q-3 -42 -20 -86q-41 -98 -138 -130q-22 -7 -49 -7q-93 0 -246 87q-168 96 -242 96q-12 0 -23 -2q-68 -21 -95 -89q-14 -34 -14 -68zM81 760 q2 42 19 85q41 98 139 131q22 7 49 7q93 0 246 -87q166 -97 242 -97q13 0 23 3q68 20 96 88q13 34 13 69l80 -13q-3 -42 -20 -86q-41 -98 -138 -130q-22 -7 -49 -7q-93 0 -246 87q-168 96 -242 96q-12 0 -23 -2q-68 -21 -95 -89q-14 -34 -14 -68z" />
<glyph unicode="&#x2260;" d="M85 625v80h569l156 172h91l-156 -172h240v-80h-312l-185 -203h493v-80h-565l-156 -172h-90l156 172h-237v80h309l184 203h-497z" />
<glyph unicode="&#x2261;" d="M85 183v80h900v-80h-900zM85 483v80h900v-80h-900zM85 783v80h900v-80h-900z" />
<glyph unicode="&#x2264;" d="M85 0v80h900v-80h-900zM89 622l892 426v-92l-723 -334l723 -334v-92z" />
<glyph unicode="&#x2265;" d="M85 0v80h900v-80h-900zM89 196v92l723 334l-723 334v92l892 -426z" />
<glyph unicode="&#x2310;" d="M135 246v419h800v-80h-720v-339h-80z" />
<glyph unicode="&#xe000;" horiz-adv-x="870" d="M0 870h870v-870h-870v870z" />
<glyph unicode="&#xf001;" horiz-adv-x="680" d="M22 788v80h88v235q6 98 75 169q73 67 167 67q50 0 105 -19l-25 -71q-37 16 -72 16q-62 0 -118 -50q-49 -49 -52 -118v-229h177v-80h-177v-788h-80v788h-88zM452 1097q0 32 23.5 55t56.5 23q32 0 55.5 -23t23.5 -55q0 -34 -23.5 -57t-55.5 -23q-33 0 -56.5 23t-23.5 57z M492 0v868h79v-868h-79z" />
<glyph unicode="&#xfb01;" horiz-adv-x="680" d="M22 788v80h88v235q6 98 75 169q73 67 167 67q50 0 105 -19l-25 -71q-37 16 -72 16q-62 0 -118 -50q-49 -49 -52 -118v-229h177v-80h-177v-788h-80v788h-88zM452 1097q0 32 23.5 55t56.5 23q32 0 55.5 -23t23.5 -55q0 -34 -23.5 -57t-55.5 -23q-33 0 -56.5 23t-23.5 57z M492 0v868h79v-868h-79z" />
<glyph unicode="&#xf002;" horiz-adv-x="687" d="M22 788v80h88v235q6 98 75 169q73 67 167 67q50 0 105 -19l-25 -71q-37 16 -72 16q-62 0 -118 -50q-49 -49 -52 -118v-229h177v-80h-177v-788h-80v788h-88zM495 0v1414h80v-1414h-80z" />
<glyph unicode="&#xfb02;" horiz-adv-x="687" d="M22 788v80h88v235q6 98 75 169q73 67 167 67q50 0 105 -19l-25 -71q-37 16 -72 16q-62 0 -118 -50q-49 -49 -52 -118v-229h177v-80h-177v-788h-80v788h-88zM495 0v1414h80v-1414h-80z" />
</font>
</defs>
</svg>
